<?xml version="1.0" encoding="UTF-8"?>
<svg xmlns="http://www.w3.org/2000/svg" xmlns:xlink="http://www.w3.org/1999/xlink" width="173px" height="60px" viewBox="0 0 173 60" version="1.1">
<g id="surface1">
<path style=" stroke:none;fill-rule:nonzero;fill:rgb(100%,100%,100%);fill-opacity:1;" d="M 0 0 L 173.019531 0 L 173.019531 59.960938 L 0 59.960938 Z M 0 0 "/>
<path style=" stroke:none;fill-rule:nonzero;fill:rgb(90.196079%,73.333335%,75.294119%);fill-opacity:1;" d="M 43.925781 2.6875 C 48.363281 2.6875 52.804688 2.6875 57.242188 2.6875 C 60.90625 2.734375 64.667969 2.5625 68.296875 2.859375 C 66.445312 3 64.652344 2.738281 62.808594 2.789062 C 56.511719 2.777344 50.21875 2.804688 43.925781 2.789062 C 42.25 2.734375 40.617188 3 38.933594 2.859375 C 40.59375 2.703125 42.253906 2.664062 43.925781 2.6875 Z M 43.925781 2.6875 "/>
<path style=" stroke:none;fill-rule:nonzero;fill:rgb(83.92157%,54.509807%,57.647061%);fill-opacity:1;" d="M 79.207031 2.683594 C 80.785156 2.785156 82.566406 2.417969 83.992188 3.070312 L 83.894531 3.074219 C 82.347656 2.671875 80.792969 2.738281 79.207031 2.875 C 75.085938 3.121094 70.917969 2.925781 66.78125 2.988281 C 62.71875 2.847656 58.726562 2.890625 54.660156 2.886719 C 52.644531 2.933594 50.601562 2.785156 48.597656 2.988281 C 44.882812 2.726562 41.28125 3.0625 37.566406 2.988281 C 36.078125 3.046875 34.535156 2.851562 33.070312 3.125 C 31.6875 3.003906 30.273438 3.359375 28.894531 3.359375 C 32.136719 2.785156 35.675781 2.925781 38.933594 2.859375 C 40.617188 3 42.25 2.734375 43.925781 2.789062 C 50.21875 2.804688 56.511719 2.777344 62.808594 2.789062 C 64.652344 2.738281 66.445312 3 68.296875 2.859375 C 71.925781 2.863281 75.59375 3.039062 79.207031 2.683594 Z M 79.207031 2.683594 "/>
<path style=" stroke:none;fill-rule:nonzero;fill:rgb(78.039217%,33.725491%,38.431373%);fill-opacity:1;" d="M 83.894531 3.074219 C 83.851562 3.175781 83.808594 3.277344 83.765625 3.378906 C 83.648438 3.589844 83.507812 3.785156 83.371094 3.980469 L 83.179688 3.976562 C 83.042969 2.792969 81.9375 3.496094 81.09375 3.203125 C 73.082031 3.371094 64.640625 3.25 56.546875 3.285156 C 50.128906 3.292969 43.988281 3.308594 37.566406 3.183594 C 36.027344 3.3125 34.605469 3.292969 33.070312 3.125 C 34.535156 2.851562 36.078125 3.046875 37.566406 2.988281 C 41.28125 3.0625 44.882812 2.726562 48.597656 2.988281 C 50.601562 2.785156 52.644531 2.933594 54.660156 2.886719 C 58.726562 2.890625 62.71875 2.847656 66.78125 2.988281 C 70.917969 2.925781 75.085938 3.121094 79.207031 2.875 C 80.792969 2.738281 82.347656 2.671875 83.894531 3.074219 Z M 83.894531 3.074219 "/>
<path style=" stroke:none;fill-rule:nonzero;fill:rgb(63.921571%,84.705883%,94.509804%);fill-opacity:1;" d="M 137.566406 3.265625 C 135.847656 3.179688 134.097656 3.03125 132.375 2.984375 C 128.753906 3.179688 125.15625 2.988281 121.542969 3.1875 C 117.699219 3.292969 114.125 3.253906 110.316406 3.410156 C 108.578125 3.617188 106.789062 3.347656 105.046875 3.582031 C 101.28125 3.558594 97.382812 3.820312 93.617188 3.785156 C 90.695312 3.671875 87.546875 4.058594 84.695312 3.46875 L 84.675781 3.375 C 87.480469 3.921875 90.546875 3.597656 93.417969 3.683594 C 97.160156 3.742188 100.914062 3.433594 104.648438 3.386719 C 108.519531 3.488281 112.3125 3.132812 116.175781 3.1875 C 119.875 3.117188 123.945312 2.945312 127.601562 2.988281 C 130.882812 2.863281 134.316406 2.761719 137.566406 3.265625 Z M 137.566406 3.265625 "/>
<path style=" stroke:none;fill-rule:nonzero;fill:rgb(40.784314%,74.117649%,90.196079%);fill-opacity:1;" d="M 132.375 2.984375 C 134.097656 3.03125 135.847656 3.179688 137.566406 3.265625 C 141.882812 4.046875 146.035156 5.929688 149.464844 8.675781 C 151.472656 10.527344 153.539062 12.53125 155.039062 14.824219 C 156.445312 17.242188 157.730469 19.820312 158.5 22.515625 C 159.570312 26.148438 159.320312 29.722656 159.175781 33.445312 C 159.039062 34.847656 158.429688 36.097656 158.261719 37.511719 C 157.492188 40.050781 156.425781 42.433594 154.847656 44.574219 C 154.152344 44.855469 153.390625 45.941406 152.875 46.546875 C 149.019531 51.203125 143.402344 54.476562 137.460938 55.511719 C 134.226562 56.09375 130.976562 56.050781 127.703125 55.875 C 125.609375 55.863281 123.527344 55.960938 121.445312 55.6875 C 117.398438 55.710938 113.476562 55.507812 109.417969 55.578125 C 107.515625 55.511719 105.558594 55.722656 103.679688 55.441406 C 102.5 55.28125 101.277344 55.445312 100.09375 55.359375 C 100.070312 55.222656 100.097656 55.167969 100.179688 55.191406 C 110.3125 55.375 120.792969 55.234375 130.980469 55.277344 C 132.871094 55.226562 134.925781 55.441406 136.769531 55.015625 C 137.464844 54.765625 138.519531 54.777344 139.066406 54.28125 C 138.769531 54.085938 138.367188 54.109375 138.027344 53.976562 C 138.3125 53.71875 138.667969 53.667969 139.023438 53.472656 C 141.707031 52.605469 144.234375 51.601562 146.554688 49.96875 C 151.453125 46.503906 155.125 41.429688 156.550781 35.574219 C 157.453125 32.175781 157.507812 28.472656 157.023438 25 C 155.953125 19.246094 152.929688 13.953125 148.4375 10.191406 C 147.464844 9.390625 146.425781 8.660156 145.386719 7.949219 C 142.699219 6.238281 139.746094 5.289062 136.65625 4.65625 C 132.894531 4.078125 128.976562 4.5625 125.21875 4.480469 C 121.476562 4.539062 117.515625 4.710938 113.789062 4.679688 C 112.027344 4.703125 110.277344 4.613281 108.523438 4.785156 C 104.789062 4.65625 101.125 5.105469 97.390625 4.980469 C 93.21875 4.925781 88.757812 5.242188 84.472656 5.179688 C 84.480469 4.613281 84.609375 4.03125 84.695312 3.46875 C 87.546875 4.058594 90.695312 3.671875 93.617188 3.785156 C 97.382812 3.820312 101.28125 3.558594 105.046875 3.582031 C 106.789062 3.347656 108.578125 3.617188 110.316406 3.410156 C 114.125 3.253906 117.699219 3.292969 121.542969 3.1875 C 125.15625 2.988281 128.753906 3.179688 132.375 2.984375 Z M 132.375 2.984375 "/>
<path style=" stroke:none;fill-rule:nonzero;fill:rgb(90.980393%,29.411766%,31.37255%);fill-opacity:1;" d="M 33.070312 3.125 C 34.605469 3.292969 36.027344 3.3125 37.566406 3.183594 C 43.988281 3.308594 50.128906 3.292969 56.546875 3.285156 C 64.640625 3.25 73.082031 3.371094 81.09375 3.203125 C 81.9375 3.496094 83.042969 2.792969 83.179688 3.976562 C 81.328125 4.242188 79.554688 3.957031 77.714844 3.984375 C 73.621094 4.035156 69.472656 3.875 65.390625 4.066406 C 54.945312 4.101562 44.347656 4.082031 33.886719 4.078125 C 31.003906 4.414062 28.167969 4.761719 25.453125 5.886719 C 22.714844 6.914062 20.234375 8.382812 18.035156 10.308594 C 15.792969 12.5 13.695312 15.054688 12.234375 17.835938 C 10.734375 20.710938 10.042969 23.800781 9.496094 26.972656 C 9.132812 30.230469 9.675781 33.425781 10.507812 36.570312 C 11.273438 39.402344 12.847656 42.058594 14.40625 44.523438 C 14.539062 44.878906 14.6875 45.230469 14.796875 45.59375 C 14.425781 45.53125 14.058594 45.445312 13.675781 45.445312 C 11.925781 43.164062 10.261719 40.667969 9.367188 37.914062 C 8.644531 34.886719 8.042969 31.703125 8.058594 28.582031 C 8.199219 25.5 8.984375 22.570312 9.988281 19.664062 C 10.441406 18.242188 11.441406 16.964844 12.140625 15.652344 C 12.988281 14.292969 13.738281 12.976562 14.945312 11.894531 C 15.761719 11.003906 16.84375 10.132812 17.390625 9.050781 C 20.304688 5.976562 24.863281 4.328125 28.894531 3.359375 C 30.273438 3.359375 31.6875 3.003906 33.070312 3.125 Z M 33.070312 3.125 "/>
<path style=" stroke:none;fill-rule:nonzero;fill:rgb(22.745098%,22.352941%,38.431373%);fill-opacity:1;" d="M 83.894531 3.074219 L 83.992188 3.070312 C 84.476562 4.746094 84.203125 6.386719 84.273438 8.167969 C 84.238281 12.25 84.34375 16.386719 84.21875 20.457031 C 83.769531 24.023438 84.488281 27.480469 84.230469 31.039062 C 83.949219 31.953125 84.179688 32.863281 84.003906 33.777344 C 83.738281 29.742188 83.9375 25.660156 83.875 21.613281 C 83.867188 15.464844 83.929688 9.527344 83.765625 3.378906 C 83.808594 3.277344 83.851562 3.175781 83.894531 3.074219 Z M 83.894531 3.074219 "/>
<path style=" stroke:none;fill-rule:nonzero;fill:rgb(21.960784%,49.411765%,66.666669%);fill-opacity:1;" d="M 83.992188 3.070312 C 84.226562 3.164062 84.449219 3.269531 84.675781 3.375 L 84.695312 3.46875 C 84.609375 4.03125 84.480469 4.613281 84.472656 5.179688 C 84.507812 7.136719 84.332031 9.253906 84.769531 11.167969 C 84.542969 17.375 84.734375 23.660156 84.671875 29.878906 C 84.792969 30.785156 84.332031 32.585938 85.164062 33.171875 C 86.171875 33.417969 87.382812 33.160156 88.429688 33.292969 C 90.292969 34.242188 91.417969 36.535156 90.550781 38.5625 C 90.539062 37.0625 90.738281 35.917969 89.472656 34.863281 C 89.34375 35.566406 89.371094 36.273438 89.28125 36.976562 C 89.046875 35.992188 89.738281 34.203125 88.464844 33.84375 C 87.023438 33.644531 85.441406 33.808594 83.988281 33.863281 L 84.003906 33.777344 C 84.179688 32.863281 83.949219 31.953125 84.230469 31.039062 C 84.488281 27.480469 83.769531 24.023438 84.21875 20.457031 C 84.34375 16.386719 84.238281 12.25 84.273438 8.167969 C 84.203125 6.386719 84.476562 4.746094 83.992188 3.070312 Z M 83.992188 3.070312 "/>
<path style=" stroke:none;fill-rule:nonzero;fill:rgb(45.882353%,7.450981%,20%);fill-opacity:1;" d="M 83.765625 3.378906 C 83.929688 9.527344 83.867188 15.464844 83.875 21.613281 C 83.9375 25.660156 83.738281 29.742188 84.003906 33.777344 L 83.988281 33.863281 C 83.417969 33.820312 82.871094 34.007812 82.308594 33.949219 C 82.402344 32.394531 81.988281 31.023438 82.085938 29.480469 C 82.058594 26.3125 81.898438 23.109375 81.757812 19.9375 C 81.648438 19.175781 82.53125 19.691406 82.960938 19.613281 C 83.050781 15.722656 83.125 11.972656 83.078125 8.066406 C 83.167969 6.703125 83.242188 5.347656 83.371094 3.980469 C 83.507812 3.785156 83.648438 3.589844 83.765625 3.378906 Z M 83.765625 3.378906 "/>
<path style=" stroke:none;fill-rule:nonzero;fill:rgb(82.745099%,18.039216%,21.960784%);fill-opacity:1;" d="M 77.714844 3.984375 C 79.554688 3.957031 81.328125 4.242188 83.179688 3.976562 L 83.371094 3.980469 C 83.242188 5.347656 83.167969 6.703125 83.078125 8.066406 C 83.125 11.972656 83.050781 15.722656 82.960938 19.613281 C 82.53125 19.691406 81.648438 19.175781 81.757812 19.9375 C 81.699219 19.226562 81.320312 18.703125 81.050781 18.0625 C 80.21875 17.984375 79.355469 18.035156 78.515625 18.035156 C 78.246094 17.984375 78.308594 18.371094 78.238281 18.542969 C 78.167969 18.234375 78.351562 17.890625 77.878906 18.085938 C 77.472656 19.714844 77.503906 21.554688 77.515625 23.207031 C 77.515625 25.597656 77.515625 27.988281 77.515625 30.378906 C 77.46875 31.847656 77.65625 33.421875 77.304688 34.835938 C 76.511719 33.886719 75.777344 33.1875 74.433594 33.363281 C 73.300781 33.390625 72.199219 33.285156 71.078125 33.507812 C 70.808594 33.519531 70.339844 33.710938 70.367188 33.265625 C 70.410156 29.671875 70.128906 26.203125 70.144531 22.609375 C 70 21.308594 69.871094 19.890625 69.433594 18.65625 C 68.734375 17.429688 67.558594 17.382812 66.285156 17.425781 C 65.417969 17.320312 65.148438 17.851562 64.953125 18.582031 C 64.667969 20.125 64.800781 21.671875 64.496094 23.207031 C 64.3125 25.078125 64.386719 27.011719 64.511719 28.886719 C 64.859375 30.800781 64.628906 32.8125 64.695312 34.761719 C 64.617188 36.117188 64.925781 37.355469 64.757812 38.703125 C 64.402344 38.894531 63.597656 39.15625 63.324219 38.746094 C 62.59375 35.078125 62.863281 31.125 62.808594 27.390625 C 62.632812 24.835938 63.226562 22.097656 62.703125 19.617188 C 62.179688 18.878906 61.597656 17.617188 60.617188 17.4375 C 59.410156 17.140625 58.183594 17.539062 57.335938 18.421875 C 57.015625 19.96875 57.1875 21.804688 57.144531 23.40625 C 57.074219 27.316406 57.246094 31.082031 57.242188 34.960938 C 57.261719 35.945312 56.871094 36.929688 56.371094 37.757812 C 55.613281 35.230469 55.730469 32.652344 55.484375 30.054688 C 55.414062 27.875 55.480469 25.6875 55.449219 23.507812 C 55.539062 22.011719 55.554688 20.242188 54.898438 18.863281 C 54.671875 18.726562 54.625 18.976562 54.535156 19.125 L 54.40625 19.082031 C 54.332031 18.992188 54.257812 18.902344 54.179688 18.816406 C 53.414062 17.863281 51.183594 17.78125 50.765625 19.101562 C 50.371094 20.957031 50.75 22.910156 50.480469 24.800781 C 50.351562 25.375 50.859375 26.683594 49.992188 26.710938 C 48.570312 26.671875 47.144531 26.707031 45.71875 26.6875 C 45.585938 24.761719 45.613281 22.84375 45.613281 20.914062 C 45.535156 20.347656 45.34375 19.546875 44.832031 19.222656 C 44.570312 19.660156 44.652344 20.109375 44.550781 20.640625 C 44.539062 20.257812 44.527344 19.875 44.449219 19.496094 C 44.394531 19.191406 44.351562 18.878906 44.273438 18.578125 C 43.480469 18.347656 42.21875 17.96875 41.480469 18.464844 C 40.980469 18.761719 41.011719 19.585938 40.910156 20.09375 C 40.761719 23.523438 40.679688 26.867188 40.816406 30.304688 C 40.441406 28.121094 40.820312 25.441406 40.558594 23.417969 C 40.457031 27.746094 40.710938 32.125 40.417969 36.4375 C 40.035156 36.484375 39.636719 36.386719 39.257812 36.332031 C 38.828125 35.351562 37.941406 34.21875 36.96875 33.765625 C 36.144531 34.078125 35.40625 34.734375 34.550781 35.027344 C 33.277344 35.507812 32.171875 35.265625 31.226562 34.304688 C 31.640625 33.933594 31.46875 33.074219 31.503906 32.570312 C 31.457031 30.878906 31.511719 29.238281 32.167969 27.652344 C 32.542969 26.386719 33.292969 25.074219 34.425781 24.34375 C 35.34375 23.78125 36.601562 24.25 37.476562 24.695312 C 37.804688 24.921875 38.046875 24.390625 38.277344 24.21875 C 38.820312 23.714844 39.558594 22.8125 39.523438 22.046875 C 39.363281 21.6875 39.070312 21.085938 38.683594 20.945312 C 37.070312 18.925781 34.375 18.039062 31.941406 19.066406 C 29.265625 20.148438 27.484375 23.058594 26.792969 25.757812 C 25.824219 29.066406 26 32.375 27.128906 35.613281 C 27.058594 36.023438 27.164062 36.417969 27.113281 36.828125 C 25.886719 36.996094 24.8125 36.550781 23.574219 36.617188 C 20.042969 36.402344 17.015625 36.125 13.515625 35.773438 C 12.660156 35.738281 11.789062 35.753906 10.933594 35.765625 C 10.5625 35.710938 10.5625 36.332031 10.507812 36.570312 C 9.675781 33.425781 9.132812 30.230469 9.496094 26.972656 C 10.042969 23.800781 10.734375 20.710938 12.234375 17.835938 C 13.695312 15.054688 15.792969 12.5 18.035156 10.308594 C 20.234375 8.382812 22.714844 6.914062 25.453125 5.886719 C 28.167969 4.761719 31.003906 4.414062 33.886719 4.078125 C 44.347656 4.082031 54.945312 4.101562 65.390625 4.066406 C 69.472656 3.875 73.621094 4.035156 77.714844 3.984375 Z M 77.714844 3.984375 "/>
<path style=" stroke:none;fill-rule:nonzero;fill:rgb(17.254902%,60.784316%,79.607844%);fill-opacity:1;" d="M 136.65625 4.65625 C 139.746094 5.289062 142.699219 6.238281 145.386719 7.949219 C 144.929688 8.039062 144.496094 8.339844 144.113281 8.59375 C 144.726562 9.230469 145.558594 9.726562 146.273438 10.246094 C 146.140625 10.53125 146.011719 10.742188 146.050781 11.074219 C 143.679688 9.140625 140.925781 7.613281 138 6.722656 C 136.960938 6.488281 135.914062 6.308594 134.882812 6.050781 C 129.273438 5.886719 123.058594 5.921875 117.464844 6.273438 C 113.746094 6.222656 109.851562 6.507812 106.136719 6.476562 C 104.316406 6.710938 102.496094 6.4375 100.671875 6.675781 C 98.835938 6.597656 97.039062 6.824219 95.207031 6.773438 C 93.144531 6.699219 91.1875 7.015625 89.121094 7.042969 C 87.867188 7.121094 86.644531 7.191406 85.390625 7.195312 C 85.339844 8.410156 85.371094 9.636719 85.375 10.855469 C 85.351562 11.007812 85.414062 11.074219 85.570312 11.050781 C 90.074219 11.132812 94.546875 10.800781 99.082031 10.753906 C 100.082031 10.769531 101.085938 10.726562 102.085938 10.785156 C 100.378906 10.992188 98.613281 10.71875 96.898438 10.945312 C 92.902344 11.363281 88.796875 11.058594 84.769531 11.167969 C 84.332031 9.253906 84.507812 7.136719 84.472656 5.179688 C 88.757812 5.242188 93.21875 4.925781 97.390625 4.980469 C 101.125 5.105469 104.789062 4.65625 108.523438 4.785156 C 110.277344 4.613281 112.027344 4.703125 113.789062 4.679688 C 117.515625 4.710938 121.476562 4.539062 125.21875 4.480469 C 128.976562 4.5625 132.894531 4.078125 136.65625 4.65625 Z M 136.65625 4.65625 "/>
<path style=" stroke:none;fill-rule:nonzero;fill:rgb(53.725493%,77.64706%,88.235295%);fill-opacity:1;" d="M 134.882812 6.050781 C 130.710938 6.171875 126.496094 5.933594 122.335938 6.179688 C 120.8125 6.070312 119.394531 6.511719 117.863281 6.375 C 114.050781 6.316406 110.011719 6.605469 106.234375 6.578125 C 104.417969 6.8125 102.59375 6.535156 100.773438 6.773438 C 99.035156 6.695312 97.335938 6.921875 95.601562 6.871094 C 93.417969 6.78125 91.316406 7.25 89.121094 7.042969 C 91.1875 7.015625 93.144531 6.699219 95.207031 6.773438 C 97.039062 6.824219 98.835938 6.597656 100.671875 6.675781 C 102.496094 6.4375 104.316406 6.710938 106.136719 6.476562 C 109.851562 6.507812 113.746094 6.222656 117.464844 6.273438 C 123.058594 5.921875 129.273438 5.886719 134.882812 6.050781 Z M 134.882812 6.050781 "/>
<path style=" stroke:none;fill-rule:nonzero;fill:rgb(97.647059%,98.823529%,98.823529%);fill-opacity:1;" d="M 134.882812 6.050781 C 135.914062 6.308594 136.960938 6.488281 138 6.722656 C 140.925781 7.613281 143.679688 9.140625 146.050781 11.074219 C 146.769531 11.734375 147.214844 12.535156 147.070312 13.542969 C 146.972656 14.695312 145.855469 15.648438 144.695312 15.535156 C 143.792969 15.433594 142.933594 14.863281 142.183594 14.371094 C 139.734375 12.71875 137.566406 11.125 134.585938 10.535156 C 132.839844 10.179688 130.972656 10.433594 129.195312 10.359375 C 125.160156 10.371094 121.195312 10.304688 117.167969 10.453125 C 113.277344 10.734375 109.332031 10.382812 105.441406 10.660156 C 103.320312 10.652344 101.203125 10.65625 99.082031 10.660156 C 94.230469 10.75 90.203125 10.902344 85.375 10.855469 C 85.371094 9.636719 85.339844 8.410156 85.390625 7.195312 C 86.644531 7.191406 87.867188 7.121094 89.121094 7.042969 C 91.316406 7.25 93.417969 6.78125 95.601562 6.871094 C 97.335938 6.921875 99.035156 6.695312 100.773438 6.773438 C 102.59375 6.535156 104.417969 6.8125 106.234375 6.578125 C 110.011719 6.605469 114.050781 6.316406 117.863281 6.375 C 119.394531 6.511719 120.8125 6.070312 122.335938 6.179688 C 126.496094 5.933594 130.710938 6.171875 134.882812 6.050781 Z M 134.882812 6.050781 "/>
<path style=" stroke:none;fill-rule:nonzero;fill:rgb(90.196079%,43.921569%,46.27451%);fill-opacity:1;" d="M 37.070312 6.277344 C 38.957031 6.273438 40.847656 6.269531 42.734375 6.277344 C 44.558594 6.515625 46.472656 6.230469 48.296875 6.472656 C 49.898438 6.472656 51.472656 6.445312 53.070312 6.578125 C 54.957031 6.632812 56.976562 6.445312 58.832031 6.671875 C 56.648438 6.664062 54.453125 6.6875 52.273438 6.664062 C 50.644531 6.4375 48.933594 6.710938 47.308594 6.480469 C 41.894531 6.484375 36.285156 6.132812 30.890625 6.566406 C 32.839844 6.195312 35.09375 6.089844 37.070312 6.277344 Z M 37.070312 6.277344 "/>
<path style=" stroke:none;fill-rule:nonzero;fill:rgb(99.215686%,74.509805%,75.294119%);fill-opacity:1;" d="M 47.308594 6.480469 C 48.933594 6.710938 50.644531 6.4375 52.273438 6.664062 C 54.453125 6.6875 56.648438 6.664062 58.832031 6.671875 C 62.398438 7.066406 65.714844 6.660156 69.265625 7.074219 C 73.871094 7.171875 77.855469 7.175781 82.46875 7.277344 C 82.507812 8.441406 82.472656 9.609375 82.488281 10.769531 C 80.683594 11.136719 78.757812 10.878906 76.917969 10.957031 C 72.644531 10.957031 68.375 10.957031 64.101562 10.957031 C 60.027344 10.988281 56.070312 10.78125 51.976562 10.855469 C 47.71875 10.929688 43.601562 10.695312 39.355469 10.757812 C 37.21875 10.84375 34.953125 10.527344 32.878906 11.042969 C 32.476562 11.132812 32.074219 11.207031 31.683594 11.335938 C 29.34375 12.058594 27.402344 13.175781 25.449219 14.640625 C 24.355469 15.386719 23.128906 15.746094 21.871094 15.128906 C 21.25 14.597656 20.75 13.914062 20.859375 13.046875 C 20.726562 11.75 21.746094 10.957031 22.675781 10.277344 C 25.066406 8.265625 27.863281 7.183594 30.890625 6.566406 C 36.285156 6.132812 41.894531 6.484375 47.308594 6.480469 Z M 47.308594 6.480469 "/>
<path style=" stroke:none;fill-rule:nonzero;fill:rgb(90.196079%,44.313726%,47.058824%);fill-opacity:1;" d="M 58.832031 6.671875 C 62.082031 6.769531 65.121094 6.757812 68.335938 6.8125 C 72.257812 7.257812 76.265625 6.910156 80.199219 7.175781 C 80.75 7.234375 82.125 7.035156 82.46875 7.277344 C 77.855469 7.175781 73.871094 7.171875 69.265625 7.074219 C 65.714844 6.660156 62.398438 7.066406 58.832031 6.671875 Z M 58.832031 6.671875 "/>
<path style=" stroke:none;fill-rule:nonzero;fill:rgb(10.196079%,58.431375%,81.960785%);fill-opacity:1;" d="M 145.386719 7.949219 C 146.425781 8.660156 147.464844 9.390625 148.4375 10.191406 C 152.929688 13.953125 155.953125 19.246094 157.023438 25 C 157.507812 28.472656 157.453125 32.175781 156.550781 35.574219 C 156.539062 35.148438 156.34375 35.292969 156.027344 35.246094 C 152.519531 35.664062 148.835938 35.976562 145.292969 35.960938 C 144.792969 35.964844 144.320312 35.960938 143.839844 35.8125 C 143.6875 35.492188 143.726562 35.089844 143.628906 34.742188 C 143.316406 34.441406 142.796875 34.324219 142.398438 34.171875 C 142.160156 33.71875 142.097656 33.1875 141.5 33.089844 C 139.597656 32.976562 137.742188 33.15625 135.851562 33.273438 L 135.855469 33.171875 C 136.136719 33.109375 136.753906 33.347656 136.652344 32.871094 C 136.507812 29.875 136.121094 26.910156 136.148438 23.902344 C 135.894531 22.265625 136.304688 20.128906 135.574219 18.617188 C 135.261719 17.753906 134.648438 16.734375 133.628906 16.671875 C 132.65625 16.578125 131.421875 16.539062 130.9375 17.578125 C 130.277344 18.953125 130.539062 20.914062 130.484375 22.410156 C 130.351562 26.125 130.789062 29.765625 130.679688 33.46875 C 130.761719 33.90625 130.238281 33.433594 130.109375 33.34375 C 128.207031 32.03125 126.582031 32.84375 124.371094 32.433594 C 123.996094 31.0625 124.046875 29.503906 124.03125 28.085938 C 123.925781 26.167969 123.808594 24.234375 123.832031 22.3125 C 123.71875 20.828125 123.863281 19.574219 122.96875 18.285156 C 122.347656 17.582031 121.613281 16.722656 120.609375 16.671875 C 119.769531 16.566406 118.679688 16.554688 118.367188 17.53125 C 117.699219 19.300781 118.046875 20.925781 117.964844 22.808594 C 118.050781 27.804688 117.667969 32.605469 118.46875 37.542969 C 118.722656 38.796875 117.507812 38.304688 116.777344 38.910156 C 116.566406 35.777344 116.519531 32.558594 116.191406 29.460938 C 116.074219 25.941406 116.339844 22.527344 116.265625 19.023438 C 115.875 18.152344 115.675781 17.40625 114.699219 17.019531 C 113.480469 16.589844 112.074219 16.855469 111.132812 17.753906 C 110.359375 18.96875 110.601562 20.90625 110.390625 22.296875 C 109.410156 21.132812 108.589844 19.546875 107.453125 18.503906 C 105 16.640625 101.28125 16.265625 98.425781 17.277344 C 97.167969 17.683594 97.34375 18.863281 96.996094 19.917969 C 96.988281 21.960938 96.996094 24.046875 96.996094 26.09375 C 96.859375 27.351562 97.332031 28.425781 97.191406 29.679688 C 97.246094 31.40625 97.402344 33.136719 97.496094 34.859375 C 97.578125 36.394531 97.089844 37.585938 98.320312 38.785156 C 97.28125 39.382812 95.582031 39.144531 94.414062 39.335938 C 93.019531 39.324219 91.601562 39.402344 90.214844 39.289062 C 90.34375 39.050781 90.46875 38.816406 90.550781 38.5625 C 91.417969 36.535156 90.292969 34.242188 88.429688 33.292969 C 87.382812 33.160156 86.171875 33.417969 85.164062 33.171875 C 84.332031 32.585938 84.792969 30.785156 84.671875 29.878906 C 84.734375 23.660156 84.542969 17.375 84.769531 11.167969 C 88.796875 11.058594 92.902344 11.363281 96.898438 10.945312 C 98.613281 10.71875 100.378906 10.992188 102.085938 10.785156 C 106.238281 10.726562 110.21875 10.605469 114.386719 10.65625 C 117.980469 10.578125 121.507812 10.378906 125.117188 10.457031 C 128.261719 10.492188 131.460938 10.382812 134.585938 10.535156 C 137.566406 11.125 139.734375 12.71875 142.183594 14.371094 C 142.933594 14.863281 143.792969 15.433594 144.695312 15.535156 C 145.855469 15.648438 146.972656 14.695312 147.070312 13.542969 C 147.214844 12.535156 146.769531 11.734375 146.050781 11.074219 C 146.011719 10.742188 146.140625 10.53125 146.273438 10.246094 C 145.558594 9.726562 144.726562 9.230469 144.113281 8.59375 C 144.496094 8.339844 144.929688 8.039062 145.386719 7.949219 Z M 145.386719 7.949219 "/>
<path style=" stroke:none;fill-rule:nonzero;fill:rgb(67.450982%,36.078432%,41.960785%);fill-opacity:1;" d="M 17.390625 9.050781 C 16.84375 10.132812 15.761719 11.003906 14.945312 11.894531 C 13.738281 12.976562 12.988281 14.292969 12.140625 15.652344 C 11.441406 16.964844 10.441406 18.242188 9.988281 19.664062 C 8.984375 22.570312 8.199219 25.5 8.058594 28.582031 C 8.042969 31.703125 8.644531 34.886719 9.367188 37.914062 C 10.261719 40.667969 11.925781 43.164062 13.675781 45.445312 C 15.097656 47.78125 17.605469 49.554688 19.691406 51.273438 C 20.933594 52.175781 22.285156 52.816406 23.667969 53.464844 C 24.855469 53.992188 26.089844 54.707031 27.390625 54.828125 C 29.230469 55.195312 31.046875 55.535156 32.890625 55.875 C 45.347656 55.878906 57.804688 55.875 70.261719 55.875 C 74.230469 55.835938 78.25 55.957031 82.207031 55.816406 C 83.222656 55.714844 83.246094 55.691406 83.308594 54.664062 C 83.394531 55.230469 83.742188 55.664062 83.753906 56.257812 C 75.371094 56.300781 66.835938 56.261719 58.433594 56.273438 C 50.195312 56.226562 41.800781 56.382812 33.589844 56.175781 C 30.746094 56.105469 28.054688 55.511719 25.351562 54.660156 C 21.449219 53.179688 17.953125 50.875 15.066406 47.847656 C 13.945312 46.863281 13.277344 45.554688 12.265625 44.476562 C 12.0625 44.347656 11.945312 43.921875 11.777344 44.332031 C 7.636719 38.203125 6.539062 30.511719 8.21875 23.371094 C 8.914062 20.683594 10.066406 18.054688 11.445312 15.644531 C 13.027344 13.15625 15.113281 10.914062 17.390625 9.050781 Z M 17.390625 9.050781 "/>
<path style=" stroke:none;fill-rule:nonzero;fill:rgb(42.352942%,73.333335%,88.235295%);fill-opacity:1;" d="M 129.195312 10.359375 C 130.972656 10.433594 132.839844 10.179688 134.585938 10.535156 C 131.460938 10.382812 128.261719 10.492188 125.117188 10.457031 C 121.507812 10.378906 117.980469 10.578125 114.386719 10.65625 C 110.21875 10.605469 106.238281 10.726562 102.085938 10.785156 C 101.085938 10.726562 100.082031 10.769531 99.082031 10.753906 L 99.082031 10.660156 C 101.203125 10.65625 103.320312 10.652344 105.441406 10.660156 C 109.332031 10.382812 113.277344 10.734375 117.167969 10.453125 C 121.195312 10.304688 125.160156 10.371094 129.195312 10.359375 Z M 129.195312 10.359375 "/>
<path style=" stroke:none;fill-rule:nonzero;fill:rgb(67.450982%,84.705883%,91.764706%);fill-opacity:1;" d="M 99.082031 10.660156 L 99.082031 10.753906 C 94.546875 10.800781 90.074219 11.132812 85.570312 11.050781 C 85.414062 11.074219 85.351562 11.007812 85.375 10.855469 C 90.203125 10.902344 94.230469 10.75 99.082031 10.660156 Z M 99.082031 10.660156 "/>
<path style=" stroke:none;fill-rule:nonzero;fill:rgb(93.725491%,56.078434%,58.039218%);fill-opacity:1;" d="M 39.355469 10.757812 C 43.601562 10.695312 47.71875 10.929688 51.976562 10.855469 C 56.070312 10.78125 60.027344 10.988281 64.101562 10.957031 C 68.375 10.957031 72.644531 10.957031 76.917969 10.957031 C 78.757812 10.878906 80.683594 11.136719 82.488281 10.769531 L 82.476562 10.949219 C 78.546875 11.195312 74.511719 10.984375 70.558594 11.054688 C 66.320312 11.054688 62.078125 11.054688 57.839844 11.054688 C 53.804688 11.074219 49.878906 10.882812 45.8125 10.957031 C 41.554688 10.878906 37.109375 10.679688 32.878906 11.042969 C 34.953125 10.527344 37.21875 10.84375 39.355469 10.757812 Z M 39.355469 10.757812 "/>
<path style=" stroke:none;fill-rule:nonzero;fill:rgb(86.666667%,31.37255%,34.509805%);fill-opacity:1;" d="M 45.8125 10.957031 C 49.878906 10.882812 53.804688 11.074219 57.839844 11.054688 C 62.078125 11.054688 66.320312 11.054688 70.558594 11.054688 C 74.511719 10.984375 78.546875 11.195312 82.476562 10.949219 C 81.820312 11.402344 80.425781 11.039062 79.601562 11.15625 C 70.957031 11.15625 62.3125 11.15625 53.664062 11.15625 C 49.625 11.03125 45.683594 11.046875 41.640625 11.058594 C 38.289062 10.878906 35.007812 10.835938 31.683594 11.335938 C 32.074219 11.207031 32.476562 11.132812 32.878906 11.042969 C 37.109375 10.679688 41.554688 10.878906 45.8125 10.957031 Z M 45.8125 10.957031 "/>
<path style=" stroke:none;fill-rule:nonzero;fill:rgb(21.960784%,55.686277%,71.372551%);fill-opacity:1;" d="M 120.609375 16.671875 C 121.613281 16.722656 122.347656 17.582031 122.96875 18.285156 C 123.863281 19.574219 123.71875 20.828125 123.832031 22.3125 C 123.808594 24.234375 123.925781 26.167969 124.03125 28.085938 C 124.046875 29.503906 123.996094 31.0625 124.371094 32.433594 C 126.582031 32.84375 128.207031 32.03125 130.109375 33.34375 C 130.238281 33.433594 130.761719 33.90625 130.679688 33.46875 C 130.789062 29.765625 130.351562 26.125 130.484375 22.410156 C 130.539062 20.914062 130.277344 18.953125 130.9375 17.578125 C 131.421875 16.539062 132.65625 16.578125 133.628906 16.671875 C 134.648438 16.734375 135.261719 17.753906 135.574219 18.617188 C 135.058594 18.835938 134.777344 18.695312 134.867188 19.402344 C 134.867188 19.816406 134.851562 20.226562 134.828125 20.640625 C 134.613281 19.566406 135.058594 18.359375 134.082031 17.515625 C 133.390625 17.191406 132.433594 17.363281 131.679688 17.339844 C 131.300781 17.320312 131.417969 17.640625 131.347656 17.902344 C 131.039062 19.773438 131.238281 21.714844 131.179688 23.605469 C 131.222656 25.691406 131.085938 27.804688 131.285156 29.878906 C 131.320312 31.339844 131.191406 32.839844 131.351562 34.285156 C 131.367188 35.175781 131.441406 36.046875 131.605469 36.921875 C 131.191406 36.257812 131.324219 35.128906 131.261719 34.359375 C 131.042969 34.539062 130.871094 34.761719 130.695312 34.980469 C 130.175781 34.824219 130 34.347656 129.914062 35.183594 C 129.980469 34.367188 129.734375 33.753906 129.078125 33.289062 C 127.378906 33.277344 125.601562 33.152344 123.929688 33.46875 L 123.835938 33.472656 C 123.664062 28.90625 123.371094 24.46875 123.167969 19.796875 C 123.160156 19.34375 122.453125 19.207031 122.160156 18.910156 L 122.046875 18.808594 C 121.933594 18.421875 121.8125 17.839844 121.5 17.574219 C 120.695312 17.320312 119.726562 17.433594 118.890625 17.460938 C 118.355469 18.832031 118.628906 20.644531 118.558594 22.113281 C 118.589844 26.117188 118.464844 30.035156 118.703125 34.027344 C 118.902344 34.824219 118.886719 35.632812 118.839844 36.449219 C 118.820312 36.902344 118.515625 37.261719 118.851562 37.644531 C 118.726562 37.609375 118.59375 37.578125 118.46875 37.542969 C 117.667969 32.605469 118.050781 27.804688 117.964844 22.808594 C 118.046875 20.925781 117.699219 19.300781 118.367188 17.53125 C 118.679688 16.554688 119.769531 16.566406 120.609375 16.671875 Z M 120.609375 16.671875 "/>
<path style=" stroke:none;fill-rule:nonzero;fill:rgb(22.352941%,55.686277%,70.588237%);fill-opacity:1;" d="M 107.453125 18.503906 C 108.589844 19.546875 109.410156 21.132812 110.390625 22.296875 C 110.601562 20.90625 110.359375 18.96875 111.132812 17.753906 C 112.074219 16.855469 113.480469 16.589844 114.699219 17.019531 C 115.675781 17.40625 115.875 18.152344 116.265625 19.023438 C 115.917969 18.925781 115.371094 18.378906 115.167969 18.910156 L 115.164062 18.808594 C 115.230469 18.089844 114.640625 17.390625 113.890625 17.4375 C 113.058594 17.457031 111.820312 17.175781 111.519531 18.238281 C 110.8125 19.753906 111.207031 21.746094 111.105469 23.40625 C 111.117188 27.234375 111.042969 31.023438 111.242188 34.839844 C 111.535156 36.074219 111.351562 37.179688 112.226562 38.230469 C 112.328125 38.480469 112.425781 38.734375 112.523438 38.984375 C 112.054688 38.839844 111.332031 38.753906 111.023438 38.355469 C 110.941406 36.699219 110.789062 35.0625 110.761719 33.40625 C 110.636719 31.421875 110.855469 29.550781 110.378906 27.589844 C 109.511719 28.660156 108.753906 29.75 107.625 30.574219 C 106.296875 31.847656 104.328125 31.640625 103.070312 32.785156 C 102.628906 34.566406 103.398438 36.980469 103.324219 38.679688 C 103.167969 38.566406 103.011719 38.453125 102.859375 38.335938 C 102.875 36.511719 102.617188 34.300781 102.820312 32.429688 C 103.339844 31.808594 104.734375 31.792969 105.457031 31.382812 C 107.796875 30.554688 109.921875 28.324219 110.203125 25.796875 C 110.359375 24.363281 109.804688 23.226562 109.320312 21.914062 C 109.015625 21.324219 108.945312 22.203125 108.882812 22.429688 C 108.425781 19.746094 106.039062 17.707031 103.359375 17.417969 C 101.929688 17.3125 100.183594 17.144531 98.835938 17.679688 C 97.804688 18.058594 97.75 18.964844 97.683594 19.921875 C 97.699219 22.078125 97.6875 24.234375 97.691406 26.394531 C 97.59375 27.910156 98.042969 29.234375 97.890625 30.777344 C 97.941406 32.824219 97.960938 34.910156 98.105469 36.945312 C 98.097656 37.640625 98.722656 38.203125 99.246094 38.570312 L 99.386719 38.65625 C 99.277344 38.726562 99.175781 38.796875 99.070312 38.871094 C 98.808594 38.914062 98.570312 38.847656 98.320312 38.785156 C 97.089844 37.585938 97.578125 36.394531 97.496094 34.859375 C 97.402344 33.136719 97.246094 31.40625 97.191406 29.679688 C 97.332031 28.425781 96.859375 27.351562 96.996094 26.09375 C 96.996094 24.046875 96.988281 21.960938 96.996094 19.917969 C 97.34375 18.863281 97.167969 17.683594 98.425781 17.277344 C 101.28125 16.265625 105 16.640625 107.453125 18.503906 Z M 107.453125 18.503906 "/>
<path style=" stroke:none;fill-rule:nonzero;fill:rgb(69.803923%,13.333334%,21.960784%);fill-opacity:1;" d="M 60.617188 17.4375 C 61.597656 17.617188 62.179688 18.878906 62.703125 19.617188 C 62.402344 19.367188 62.167969 19.398438 61.804688 19.484375 L 61.71875 19.5 C 61.6875 19.09375 61.617188 18.226562 61.105469 18.140625 C 60.285156 17.957031 58.417969 17.726562 58.019531 18.710938 C 57.800781 19.078125 57.777344 19.472656 57.714844 19.886719 C 57.359375 20.449219 57.617188 21.359375 57.539062 22.011719 C 57.625 25.875 57.34375 29.839844 57.742188 33.664062 C 57.796875 34.835938 57.753906 36.121094 58.035156 37.257812 C 58.199219 37.769531 58.238281 38.242188 58.636719 38.640625 C 58.46875 38.644531 58.300781 38.652344 58.128906 38.667969 C 58.449219 39.050781 59.039062 39.226562 59.480469 39.433594 C 60.40625 40.046875 61.890625 40.082031 62.96875 40.007812 C 63.160156 39.609375 63.316406 39.191406 63.324219 38.746094 C 63.597656 39.15625 64.402344 38.894531 64.757812 38.703125 C 64.925781 37.355469 64.617188 36.117188 64.695312 34.761719 C 64.628906 32.8125 64.859375 30.800781 64.511719 28.886719 C 64.386719 27.011719 64.3125 25.078125 64.496094 23.207031 C 64.800781 21.671875 64.667969 20.125 64.953125 18.582031 C 65.148438 17.851562 65.417969 17.320312 66.285156 17.425781 C 67.558594 17.382812 68.734375 17.429688 69.433594 18.65625 C 69.871094 19.890625 70 21.308594 70.144531 22.609375 C 70.128906 26.203125 70.410156 29.671875 70.367188 33.265625 C 70.339844 33.710938 70.808594 33.519531 71.078125 33.507812 C 72.199219 33.285156 73.300781 33.390625 74.433594 33.363281 C 75.777344 33.1875 76.511719 33.886719 77.304688 34.835938 C 77.65625 33.421875 77.46875 31.847656 77.515625 30.378906 C 77.515625 27.988281 77.515625 25.597656 77.515625 23.207031 C 77.503906 21.554688 77.472656 19.714844 77.878906 18.085938 C 78.351562 17.890625 78.167969 18.234375 78.238281 18.542969 C 78.21875 18.863281 78.207031 19.183594 78.191406 19.5 C 78.15625 19.632812 78.125 19.761719 78.089844 19.894531 C 77.699219 21.453125 78.015625 23.28125 77.914062 24.902344 C 77.957031 28.914062 77.734375 33.402344 78.316406 37.347656 C 78.582031 38.570312 79.371094 38.464844 80.410156 38.453125 C 80.253906 38.558594 79.375 38.550781 79.707031 38.839844 C 80.492188 39.527344 82.042969 39.066406 82.730469 39.796875 C 83.117188 40.558594 82.941406 41.6875 82.980469 42.53125 C 82.988281 44.21875 82.972656 45.90625 82.988281 47.59375 C 79.652344 47.152344 76.203125 47.378906 72.84375 47.109375 C 71.183594 47.171875 69.539062 46.914062 67.875 46.828125 C 60.925781 46.660156 54.542969 46.445312 47.601562 46.011719 C 44.246094 45.988281 40.820312 45.753906 37.464844 45.707031 C 35.835938 45.375 34.078125 45.492188 32.417969 45.382812 C 31.152344 45.171875 29.722656 45.527344 28.519531 45.121094 C 26.136719 43.875 24.210938 41.492188 21.75 40.453125 C 19.722656 39.832031 18.058594 41.832031 18.851562 43.757812 C 20.226562 46.117188 22.855469 47.839844 25.1875 49.148438 C 27.828125 50.472656 30.832031 51.34375 33.789062 51.394531 C 38.0625 51.394531 42.335938 51.390625 46.609375 51.398438 C 50.675781 51.148438 54.800781 51.414062 58.875 51.246094 C 62.632812 51.429688 66.1875 51.109375 69.964844 51.195312 C 74.171875 51.195312 78.378906 51.195312 82.585938 51.195312 C 82.761719 51.164062 82.960938 51.222656 82.964844 50.984375 C 83.027344 49.953125 82.929688 48.914062 83.015625 47.882812 C 83.140625 49.992188 83.066406 52.164062 83.277344 54.28125 C 79.453125 54.632812 75.703125 54.429688 71.851562 54.480469 C 59.222656 54.464844 46.398438 54.515625 33.796875 54.457031 C 27.410156 54.207031 21.296875 51.703125 16.839844 47.070312 C 15.972656 46.257812 15.257812 45.328125 14.40625 44.523438 C 12.847656 42.058594 11.273438 39.402344 10.507812 36.570312 C 10.5625 36.332031 10.5625 35.710938 10.933594 35.765625 C 11.789062 35.753906 12.660156 35.738281 13.515625 35.773438 C 17.015625 36.125 20.042969 36.402344 23.574219 36.617188 C 24.8125 36.550781 25.886719 36.996094 27.113281 36.828125 C 27.164062 36.417969 27.058594 36.023438 27.128906 35.613281 C 27.925781 36.421875 28.472656 37.640625 29.414062 38.335938 L 29.25 38.347656 C 31 40.4375 34.691406 41.128906 37.140625 40.019531 C 38.667969 39.609375 39.453125 38.203125 41.066406 37.871094 C 41.113281 37.144531 40.917969 36.371094 40.941406 35.65625 L 41.035156 35.65625 C 41.160156 36.617188 41.050781 37.75 41.4375 38.640625 C 41.621094 39.050781 41.90625 39.296875 42.304688 39.484375 C 43.269531 39.902344 44.640625 40.320312 45.675781 39.992188 C 46.394531 39.65625 46.035156 38.300781 46.097656 37.652344 C 47.519531 37.929688 49.089844 38.152344 50.527344 37.988281 C 50.589844 35.976562 49.90625 33.921875 50.128906 31.894531 C 49.839844 31.863281 49.554688 31.847656 49.269531 31.808594 C 49.566406 31.757812 50.082031 31.863281 50.289062 31.613281 C 50.402344 31.40625 50.488281 31.179688 50.570312 30.957031 C 50.617188 33.042969 50.476562 35.355469 51.070312 37.371094 C 51.136719 37.726562 51.1875 38.085938 51.269531 38.4375 C 51.105469 38.445312 50.945312 38.453125 50.785156 38.464844 C 51.6875 39.292969 53.003906 39.988281 54.261719 39.847656 C 54.910156 39.828125 55.558594 39.835938 55.824219 39.125 C 56.261719 37.246094 55.570312 35.210938 55.550781 33.464844 C 55.613281 32.316406 55.34375 31.210938 55.484375 30.054688 C 55.730469 32.652344 55.613281 35.230469 56.371094 37.757812 C 56.871094 36.929688 57.261719 35.945312 57.242188 34.960938 C 57.246094 31.082031 57.074219 27.316406 57.144531 23.40625 C 57.1875 21.804688 57.015625 19.96875 57.335938 18.421875 C 58.183594 17.539062 59.410156 17.140625 60.617188 17.4375 Z M 60.617188 17.4375 "/>
<path style=" stroke:none;fill-rule:nonzero;fill:rgb(97.647059%,98.823529%,98.431373%);fill-opacity:1;" d="M 103.359375 17.417969 C 106.039062 17.707031 108.425781 19.746094 108.882812 22.429688 C 108.917969 23.230469 109.066406 24.007812 109.027344 24.8125 C 108.457031 27.558594 106.234375 29.601562 103.59375 30.328125 C 103.019531 30.539062 101.941406 30.628906 101.539062 31.054688 C 101.414062 32.515625 101.425781 34.117188 101.539062 35.582031 C 101.507812 36.234375 101.769531 37.511719 101.324219 37.992188 C 100.648438 38.285156 99.933594 38.328125 99.246094 38.570312 C 98.722656 38.203125 98.097656 37.640625 98.105469 36.945312 C 97.960938 34.910156 97.941406 32.824219 97.890625 30.777344 C 98.042969 29.234375 97.59375 27.910156 97.691406 26.394531 C 97.6875 24.234375 97.699219 22.078125 97.683594 19.921875 C 97.75 18.964844 97.804688 18.058594 98.835938 17.679688 C 100.183594 17.144531 101.929688 17.3125 103.359375 17.417969 Z M 103.359375 17.417969 "/>
<path style=" stroke:none;fill-rule:nonzero;fill:rgb(97.647059%,98.823529%,98.823529%);fill-opacity:1;" d="M 131.679688 17.339844 C 132.433594 17.363281 133.390625 17.191406 134.082031 17.515625 C 135.058594 18.359375 134.613281 19.566406 134.828125 20.640625 C 134.890625 21.324219 134.824219 22.003906 134.886719 22.683594 C 134.738281 24.519531 135.117188 26.273438 135.121094 28.113281 C 135.425781 29.820312 135.089844 31.527344 135.390625 33.242188 C 135.542969 33.265625 135.695312 33.269531 135.851562 33.273438 C 137.742188 33.15625 139.597656 32.976562 141.5 33.089844 C 142.097656 33.1875 142.160156 33.71875 142.398438 34.171875 C 142.414062 34.289062 142.433594 34.410156 142.449219 34.53125 C 142.136719 35.476562 142.621094 36.59375 141.382812 36.90625 C 138.691406 37.296875 135.949219 37.347656 132.949219 37.789062 C 132.824219 37.804688 132.699219 37.824219 132.570312 37.84375 C 132.167969 37.609375 131.925781 37.25 131.605469 36.921875 C 131.441406 36.046875 131.367188 35.175781 131.351562 34.285156 C 131.425781 28.871094 131.128906 23.480469 131.347656 17.902344 C 131.417969 17.640625 131.300781 17.320312 131.679688 17.339844 Z M 131.679688 17.339844 "/>
<path style=" stroke:none;fill-rule:nonzero;fill:rgb(97.647059%,98.823529%,98.823529%);fill-opacity:1;" d="M 113.890625 17.4375 C 114.640625 17.390625 115.230469 18.089844 115.164062 18.808594 C 114.863281 20.617188 115.019531 22.554688 114.980469 24.402344 C 114.941406 28.03125 115.011719 31.605469 115.226562 35.21875 C 115.300781 36.066406 115.347656 37.019531 115.199219 37.859375 C 114.230469 37.96875 113.191406 38.292969 112.226562 38.230469 C 111.351562 37.179688 111.535156 36.074219 111.242188 34.839844 C 111.042969 31.023438 111.117188 27.234375 111.105469 23.40625 C 111.207031 21.746094 110.8125 19.753906 111.519531 18.238281 C 111.820312 17.175781 113.058594 17.457031 113.890625 17.4375 Z M 113.890625 17.4375 "/>
<path style=" stroke:none;fill-rule:nonzero;fill:rgb(97.647059%,98.823529%,98.431373%);fill-opacity:1;" d="M 118.890625 17.460938 C 119.726562 17.433594 120.695312 17.320312 121.5 17.574219 C 121.8125 17.839844 121.933594 18.421875 122.046875 18.808594 C 121.890625 20.324219 122.320312 21.707031 122.238281 23.210938 C 122.421875 26.515625 122.554688 30.046875 122.554688 33.355469 C 122.578125 33.726562 123.671875 33.566406 123.929688 33.46875 C 125.601562 33.152344 127.378906 33.277344 129.078125 33.289062 C 129.734375 33.753906 129.980469 34.367188 129.914062 35.183594 C 129.765625 35.691406 129.925781 36.882812 129.234375 36.992188 C 125.996094 37.578125 122.976562 37.691406 119.734375 37.945312 C 119.449219 37.824219 119.152344 37.730469 118.851562 37.644531 C 118.515625 37.261719 118.820312 36.902344 118.839844 36.449219 C 118.886719 35.632812 118.902344 34.824219 118.703125 34.027344 C 118.464844 30.035156 118.589844 26.117188 118.558594 22.113281 C 118.628906 20.644531 118.355469 18.832031 118.890625 17.460938 Z M 118.890625 17.460938 "/>
<path style=" stroke:none;fill-rule:nonzero;fill:rgb(98.823529%,97.647059%,97.647059%);fill-opacity:1;" d="M 61.105469 18.140625 C 61.617188 18.226562 61.6875 19.09375 61.71875 19.5 C 61.664062 20.867188 61.597656 22.210938 61.585938 23.582031 C 61.46875 24.667969 61.46875 26.128906 61.585938 27.214844 C 61.640625 30.527344 61.703125 33.453125 62.015625 36.753906 C 61.992188 37.277344 62.15625 38.226562 61.515625 38.445312 C 60.664062 38.808594 59.554688 38.589844 58.636719 38.640625 C 58.238281 38.242188 58.199219 37.769531 58.035156 37.257812 C 57.949219 35.730469 57.828125 34.222656 57.8125 32.691406 C 57.835938 28.074219 57.457031 23.304688 58.019531 18.710938 C 58.417969 17.726562 60.285156 17.957031 61.105469 18.140625 Z M 61.105469 18.140625 "/>
<path style=" stroke:none;fill-rule:nonzero;fill:rgb(60.392159%,78.039217%,85.490197%);fill-opacity:1;" d="M 131.347656 17.902344 C 131.128906 23.480469 131.425781 28.871094 131.351562 34.285156 C 131.191406 32.839844 131.320312 31.339844 131.285156 29.878906 C 131.085938 27.804688 131.222656 25.691406 131.179688 23.605469 C 131.238281 21.714844 131.039062 19.773438 131.347656 17.902344 Z M 131.347656 17.902344 "/>
<path style=" stroke:none;fill-rule:nonzero;fill:rgb(98.823529%,97.647059%,98.431373%);fill-opacity:1;" d="M 67.339844 18.070312 C 67.703125 18.1875 68.675781 18.09375 68.667969 18.628906 C 68.828125 19.296875 68.707031 19.972656 68.839844 20.640625 C 68.910156 22.757812 68.96875 24.964844 69.097656 27.066406 C 69.082031 28.664062 68.992188 30.3125 69.140625 31.894531 C 69.167969 32.3125 69.167969 32.726562 69.195312 33.144531 C 69.234375 33.507812 68.933594 34.355469 69.5625 34.269531 C 70.308594 34.257812 71 33.992188 71.777344 34 C 73.203125 33.859375 74.769531 33.726562 76.179688 34.003906 C 76.347656 34.804688 76.347656 35.644531 76.429688 36.457031 C 76.28125 36.96875 76.382812 37.5 75.746094 37.667969 C 73.75 38.023438 71.613281 38.316406 69.589844 38.375 C 68.355469 38.3125 67.121094 38.367188 65.886719 38.34375 C 65.503906 38.386719 65.542969 38.140625 65.5 37.851562 C 65.261719 33.722656 65.457031 29.539062 65.390625 25.398438 C 65.484375 23.023438 65.1875 20.558594 65.578125 18.21875 C 65.871094 17.84375 66.890625 18.070312 67.339844 18.070312 Z M 67.339844 18.070312 "/>
<path style=" stroke:none;fill-rule:nonzero;fill:rgb(98.823529%,98.039216%,98.039216%);fill-opacity:1;" d="M 78.515625 18.035156 C 79.355469 18.035156 80.21875 17.984375 81.050781 18.0625 C 81.320312 18.703125 81.699219 19.226562 81.757812 19.9375 C 81.898438 23.109375 82.058594 26.3125 82.085938 29.480469 C 81.988281 31.023438 82.402344 32.394531 82.308594 33.949219 C 82.871094 34.007812 83.417969 33.820312 83.988281 33.863281 C 85.441406 33.808594 87.023438 33.644531 88.464844 33.84375 C 89.738281 34.203125 89.046875 35.992188 89.28125 36.976562 C 89.222656 37.160156 89.320312 37.578125 89.039062 37.550781 C 87.492188 37.785156 85.929688 37.933594 84.371094 38.050781 C 83.0625 38.378906 81.738281 38.179688 80.410156 38.453125 C 79.371094 38.464844 78.582031 38.570312 78.316406 37.347656 C 78.214844 36.351562 78.214844 35.382812 78.183594 34.386719 C 78.324219 30.632812 77.933594 26.964844 78.210938 23.207031 C 78.199219 21.972656 78.234375 20.734375 78.191406 19.5 C 78.207031 19.183594 78.21875 18.863281 78.238281 18.542969 C 78.308594 18.371094 78.246094 17.984375 78.515625 18.035156 Z M 78.515625 18.035156 "/>
<path style=" stroke:none;fill-rule:nonzero;fill:rgb(98.823529%,98.039216%,98.039216%);fill-opacity:1;" d="M 54.179688 18.816406 C 54.457031 21.652344 54.015625 24.589844 54.433594 27.414062 C 54.421875 30.816406 54.6875 34.164062 54.761719 37.550781 C 54.765625 37.855469 54.742188 38.148438 54.667969 38.441406 C 53.617188 39.007812 52.371094 38.652344 51.269531 38.4375 C 51.1875 38.085938 51.136719 37.726562 51.070312 37.371094 C 50.894531 35.710938 50.601562 34.066406 50.683594 32.371094 C 50.621094 31.9375 50.816406 30.84375 50.578125 30.59375 C 49.925781 30.542969 49.273438 30.613281 48.621094 30.550781 C 47.371094 30.460938 45.753906 30.378906 44.632812 30.585938 C 44.621094 30.777344 44.632812 30.960938 44.644531 31.152344 C 44.660156 32.160156 44.507812 33.28125 44.722656 34.261719 C 44.488281 35.742188 45.246094 37.078125 44.699219 38.433594 C 43.484375 39.234375 42.714844 38.824219 41.4375 38.640625 C 41.050781 37.75 41.160156 36.617188 41.035156 35.65625 C 41.042969 33.894531 40.875 32.152344 40.945312 30.378906 C 41.027344 28.183594 40.675781 26.257812 40.917969 24.097656 C 40.960938 22.773438 40.96875 21.417969 40.910156 20.09375 C 41.011719 19.585938 40.980469 18.761719 41.480469 18.464844 C 42.21875 17.96875 43.480469 18.347656 44.273438 18.578125 C 44.351562 18.878906 44.394531 19.191406 44.449219 19.496094 C 44.386719 21.761719 44.445312 24.03125 44.417969 26.296875 C 44.460938 26.464844 44.328125 26.835938 44.605469 26.792969 C 44.898438 26.8125 45.199219 26.792969 45.496094 26.777344 C 46.976562 26.753906 48.527344 26.894531 49.992188 26.710938 C 50.183594 26.691406 50.375 26.6875 50.5625 26.664062 C 50.753906 24.140625 50.613281 21.625 50.765625 19.101562 C 51.183594 17.78125 53.414062 17.863281 54.179688 18.816406 Z M 54.179688 18.816406 "/>
<path style=" stroke:none;fill-rule:nonzero;fill:rgb(92.54902%,79.215688%,81.568629%);fill-opacity:1;" d="M 65.578125 18.21875 C 65.1875 20.558594 65.484375 23.023438 65.390625 25.398438 C 65.457031 29.539062 65.261719 33.722656 65.5 37.851562 C 65.542969 38.140625 65.503906 38.386719 65.886719 38.34375 C 67.121094 38.367188 68.355469 38.3125 69.589844 38.375 C 69.160156 38.460938 68.730469 38.449219 68.296875 38.472656 C 67.375 38.398438 66.4375 38.5 65.519531 38.417969 C 65.296875 37.796875 65.34375 37.035156 65.261719 36.378906 C 65.316406 31.222656 65.308594 26.050781 65.265625 20.890625 C 65.386719 20.070312 65.089844 18.914062 65.578125 18.21875 Z M 65.578125 18.21875 "/>
<path style=" stroke:none;fill-rule:nonzero;fill:rgb(98.431373%,96.862745%,97.647059%);fill-opacity:1;" d="M 38.683594 20.945312 C 38.054688 21.84375 37.308594 22.804688 36.535156 23.570312 C 35.753906 23.550781 35.203125 22.6875 34.285156 22.796875 C 33.160156 22.636719 32.515625 23.519531 31.90625 24.308594 C 30.304688 27.242188 29.589844 31.234375 31.226562 34.304688 C 32.171875 35.265625 33.277344 35.507812 34.550781 35.027344 C 35.40625 34.734375 36.144531 34.078125 36.96875 33.765625 C 37.941406 34.21875 38.828125 35.351562 39.257812 36.332031 C 37.324219 38.644531 34.445312 39.921875 31.4375 39.125 C 30.738281 38.945312 30.125 38.527344 29.414062 38.335938 C 28.472656 37.640625 27.925781 36.421875 27.128906 35.613281 C 26 32.375 25.824219 29.066406 26.792969 25.757812 C 27.484375 23.058594 29.265625 20.148438 31.941406 19.066406 C 34.375 18.039062 37.070312 18.925781 38.683594 20.945312 Z M 38.683594 20.945312 "/>
<path style=" stroke:none;fill-rule:nonzero;fill:rgb(12.156863%,32.156864%,45.490196%);fill-opacity:1;" d="M 116.265625 19.023438 C 116.339844 22.527344 116.074219 25.941406 116.191406 29.460938 C 116.292969 32.503906 116.476562 35.511719 116.679688 38.550781 C 116.710938 39.019531 116.539062 39.003906 116.164062 39.140625 C 114.925781 39.671875 113.742188 39.410156 112.523438 38.984375 C 112.425781 38.734375 112.328125 38.480469 112.226562 38.230469 C 113.191406 38.292969 114.230469 37.96875 115.199219 37.859375 C 115.46875 37.871094 115.347656 37.425781 115.382812 37.253906 C 115.347656 33.941406 115.023438 30.609375 115.082031 27.289062 C 115.09375 24.484375 115.027344 21.710938 115.167969 18.910156 C 115.371094 18.378906 115.917969 18.925781 116.265625 19.023438 Z M 116.265625 19.023438 "/>
<path style=" stroke:none;fill-rule:nonzero;fill:rgb(5.098039%,32.156864%,48.235294%);fill-opacity:1;" d="M 135.574219 18.617188 C 136.304688 20.128906 135.894531 22.265625 136.148438 23.902344 C 136.121094 26.910156 136.507812 29.875 136.652344 32.871094 C 136.753906 33.347656 136.136719 33.109375 135.855469 33.171875 C 136.007812 29.753906 135.433594 26.417969 135.445312 23.007812 C 135.261719 21.71875 135.511719 20.613281 134.867188 19.402344 C 134.777344 18.695312 135.058594 18.835938 135.574219 18.617188 Z M 135.574219 18.617188 "/>
<path style=" stroke:none;fill-rule:nonzero;fill:rgb(91.764706%,77.254903%,79.607844%);fill-opacity:1;" d="M 58.019531 18.710938 C 57.457031 23.304688 57.835938 28.074219 57.8125 32.691406 C 57.523438 30.859375 57.679688 28.96875 57.640625 27.089844 C 57.664062 24.679688 57.574219 22.269531 57.714844 19.886719 C 57.777344 19.472656 57.800781 19.078125 58.019531 18.710938 Z M 58.019531 18.710938 "/>
<path style=" stroke:none;fill-rule:nonzero;fill:rgb(79.607844%,62.7451%,66.274512%);fill-opacity:1;" d="M 54.179688 18.816406 C 54.257812 18.902344 54.332031 18.992188 54.40625 19.082031 C 54.515625 21.847656 54.457031 24.644531 54.433594 27.414062 C 54.015625 24.589844 54.457031 21.652344 54.179688 18.816406 Z M 54.179688 18.816406 "/>
<path style=" stroke:none;fill-rule:nonzero;fill:rgb(50.588238%,10.588235%,18.431373%);fill-opacity:1;" d="M 54.898438 18.863281 C 55.554688 20.242188 55.539062 22.011719 55.449219 23.507812 C 55.480469 25.6875 55.414062 27.875 55.484375 30.054688 C 55.34375 31.210938 55.613281 32.316406 55.550781 33.464844 C 55.570312 35.210938 56.261719 37.246094 55.824219 39.125 C 55.558594 39.835938 54.910156 39.828125 54.261719 39.847656 C 53.003906 39.988281 51.6875 39.292969 50.785156 38.464844 C 50.945312 38.453125 51.105469 38.445312 51.269531 38.4375 C 52.371094 38.652344 53.617188 39.007812 54.667969 38.441406 C 55.074219 37.90625 54.773438 36.484375 54.839844 35.757812 C 54.414062 30.214844 54.621094 24.679688 54.535156 19.125 C 54.625 18.976562 54.671875 18.726562 54.898438 18.863281 Z M 54.898438 18.863281 "/>
<path style=" stroke:none;fill-rule:nonzero;fill:rgb(61.56863%,70.19608%,76.078433%);fill-opacity:1;" d="M 115.164062 18.808594 L 115.167969 18.910156 C 115.027344 21.710938 115.09375 24.484375 115.082031 27.289062 C 115.023438 30.609375 115.347656 33.941406 115.382812 37.253906 C 115.347656 37.425781 115.46875 37.871094 115.199219 37.859375 C 115.347656 37.019531 115.300781 36.066406 115.226562 35.21875 C 115.011719 31.605469 114.941406 28.03125 114.980469 24.402344 C 115.019531 22.554688 114.863281 20.617188 115.164062 18.808594 Z M 115.164062 18.808594 "/>
<path style=" stroke:none;fill-rule:nonzero;fill:rgb(61.56863%,67.843139%,72.941178%);fill-opacity:1;" d="M 122.046875 18.808594 L 122.160156 18.910156 C 122.109375 19.742188 122.097656 20.507812 122.316406 21.320312 C 122.371094 24.761719 122.640625 28.234375 122.632812 31.671875 C 122.679688 32.226562 122.511719 32.933594 122.761719 33.4375 C 123.113281 33.488281 123.480469 33.472656 123.835938 33.472656 L 123.929688 33.46875 C 123.671875 33.566406 122.578125 33.726562 122.554688 33.355469 C 122.554688 30.046875 122.421875 26.515625 122.238281 23.210938 C 122.320312 21.707031 121.890625 20.324219 122.046875 18.808594 Z M 122.046875 18.808594 "/>
<path style=" stroke:none;fill-rule:nonzero;fill:rgb(15.294118%,28.627452%,40.000001%);fill-opacity:1;" d="M 122.160156 18.910156 C 122.453125 19.207031 123.160156 19.34375 123.167969 19.796875 C 123.371094 24.46875 123.664062 28.90625 123.835938 33.472656 C 123.480469 33.472656 123.113281 33.488281 122.761719 33.4375 C 122.511719 32.933594 122.679688 32.226562 122.632812 31.671875 C 122.640625 28.234375 122.371094 24.761719 122.316406 21.320312 C 122.097656 20.507812 122.109375 19.742188 122.160156 18.910156 Z M 122.160156 18.910156 "/>
<path style=" stroke:none;fill-rule:nonzero;fill:rgb(89.803922%,52.941179%,55.29412%);fill-opacity:1;" d="M 50.765625 19.101562 C 50.613281 21.625 50.753906 24.140625 50.5625 26.664062 C 50.375 26.6875 50.183594 26.691406 49.992188 26.710938 C 50.859375 26.683594 50.351562 25.375 50.480469 24.800781 C 50.75 22.910156 50.371094 20.957031 50.765625 19.101562 Z M 50.765625 19.101562 "/>
<path style=" stroke:none;fill-rule:nonzero;fill:rgb(62.352943%,33.333334%,39.215687%);fill-opacity:1;" d="M 54.40625 19.082031 L 54.535156 19.125 C 54.621094 24.679688 54.414062 30.214844 54.839844 35.757812 C 54.773438 36.484375 55.074219 37.90625 54.667969 38.441406 C 54.742188 38.148438 54.765625 37.855469 54.761719 37.550781 C 54.6875 34.164062 54.421875 30.816406 54.433594 27.414062 C 54.457031 24.644531 54.515625 21.847656 54.40625 19.082031 Z M 54.40625 19.082031 "/>
<path style=" stroke:none;fill-rule:nonzero;fill:rgb(98.039216%,74.117649%,74.901962%);fill-opacity:1;" d="M 20.769531 20.117188 C 21.542969 21.121094 21.320312 22.753906 21.050781 23.902344 C 20.800781 25.710938 20.929688 27.367188 20.09375 29.003906 C 19.582031 29.777344 18.867188 29.78125 18.070312 30.054688 C 16.996094 29.859375 16.097656 29.402344 15.667969 28.324219 C 15.324219 27.125 15.503906 25.609375 15.773438 24.394531 C 15.90625 23.195312 15.90625 21.898438 16.207031 20.726562 C 16.710938 18.882812 19.769531 18.714844 20.769531 20.117188 Z M 20.769531 20.117188 "/>
<path style=" stroke:none;fill-rule:nonzero;fill:rgb(52.156866%,11.764706%,18.039216%);fill-opacity:1;" d="M 44.832031 19.222656 C 45.34375 19.546875 45.535156 20.347656 45.613281 20.914062 C 45.613281 22.84375 45.585938 24.761719 45.71875 26.6875 C 45.644531 26.71875 45.570312 26.75 45.496094 26.777344 C 45.199219 26.792969 44.898438 26.8125 44.605469 26.792969 C 44.433594 24.777344 44.535156 22.671875 44.550781 20.640625 C 44.652344 20.109375 44.570312 19.660156 44.832031 19.222656 Z M 44.832031 19.222656 "/>
<path style=" stroke:none;fill-rule:nonzero;fill:rgb(57.647061%,5.098039%,16.078432%);fill-opacity:1;" d="M 62.703125 19.617188 C 63.226562 22.097656 62.632812 24.835938 62.808594 27.390625 C 62.863281 31.125 62.59375 35.078125 63.324219 38.746094 C 63.316406 39.191406 63.160156 39.609375 62.96875 40.007812 C 61.890625 40.082031 60.40625 40.046875 59.480469 39.433594 C 60.347656 39.214844 61.808594 39.511719 62.316406 38.550781 C 62.71875 38.085938 62.601562 37.617188 62.609375 37.050781 C 62.707031 35.335938 62.191406 33.707031 62.207031 31.972656 C 62.25 28.117188 62.144531 24.203125 62.257812 20.359375 C 62.273438 19.828125 62.5625 19.453125 61.804688 19.484375 C 62.167969 19.398438 62.402344 19.367188 62.703125 19.617188 Z M 62.703125 19.617188 "/>
<path style=" stroke:none;fill-rule:nonzero;fill:rgb(54.509807%,12.54902%,20.784314%);fill-opacity:1;" d="M 69.539062 19.4375 C 70.320312 22.929688 69.96875 26.085938 70.207031 29.839844 C 70.4375 31.183594 70.027344 32.714844 70.378906 34 C 70.015625 34.070312 69.664062 34.105469 69.300781 34.039062 C 69.261719 33.742188 69.246094 33.441406 69.195312 33.144531 C 69.167969 32.726562 69.167969 32.3125 69.140625 31.894531 C 69.15625 30.300781 69.246094 28.652344 69.097656 27.066406 C 68.96875 24.964844 68.910156 22.757812 68.839844 20.640625 C 68.898438 20.105469 68.710938 19.316406 69.539062 19.4375 Z M 69.539062 19.4375 "/>
<path style=" stroke:none;fill-rule:nonzero;fill:rgb(25.882354%,34.901962%,43.529412%);fill-opacity:1;" d="M 134.867188 19.402344 C 135.511719 20.613281 135.261719 21.71875 135.445312 23.007812 C 135.433594 26.417969 136.007812 29.753906 135.855469 33.171875 L 135.851562 33.273438 C 135.695312 33.269531 135.542969 33.265625 135.390625 33.242188 C 135.089844 31.527344 135.425781 29.820312 135.121094 28.113281 C 135.304688 26.246094 134.953125 24.535156 134.886719 22.683594 C 134.824219 22.003906 134.890625 21.324219 134.828125 20.640625 C 134.851562 20.226562 134.867188 19.816406 134.867188 19.402344 Z M 134.867188 19.402344 "/>
<path style=" stroke:none;fill-rule:nonzero;fill:rgb(84.705883%,59.607846%,62.352943%);fill-opacity:1;" d="M 44.449219 19.496094 C 44.527344 19.875 44.539062 20.257812 44.550781 20.640625 C 44.535156 22.671875 44.433594 24.777344 44.605469 26.792969 C 44.328125 26.835938 44.460938 26.464844 44.417969 26.296875 C 44.445312 24.03125 44.386719 21.761719 44.449219 19.496094 Z M 44.449219 19.496094 "/>
<path style=" stroke:none;fill-rule:nonzero;fill:rgb(50.980395%,14.901961%,24.313726%);fill-opacity:1;" d="M 61.71875 19.5 L 61.804688 19.484375 C 62.5625 19.453125 62.273438 19.828125 62.257812 20.359375 C 62.144531 24.203125 62.25 28.117188 62.207031 31.972656 C 62.191406 33.707031 62.707031 35.335938 62.609375 37.050781 C 62.601562 37.617188 62.71875 38.085938 62.316406 38.550781 C 61.808594 39.511719 60.347656 39.214844 59.480469 39.433594 C 59.039062 39.226562 58.449219 39.050781 58.128906 38.667969 C 58.300781 38.652344 58.46875 38.644531 58.636719 38.640625 C 59.554688 38.589844 60.664062 38.808594 61.515625 38.445312 C 62.15625 38.226562 61.992188 37.277344 62.015625 36.753906 C 61.703125 33.453125 61.640625 30.527344 61.585938 27.214844 C 61.632812 26.011719 61.632812 24.785156 61.585938 23.582031 C 61.597656 22.210938 61.664062 20.867188 61.71875 19.5 Z M 61.71875 19.5 "/>
<path style=" stroke:none;fill-rule:nonzero;fill:rgb(89.411765%,70.980394%,74.117649%);fill-opacity:1;" d="M 78.191406 19.5 C 78.234375 20.734375 78.199219 21.972656 78.210938 23.207031 C 77.933594 26.964844 78.324219 30.632812 78.183594 34.386719 C 77.863281 30.699219 78.074219 26.917969 78.011719 23.207031 C 78.003906 22.09375 78.003906 21.003906 78.089844 19.894531 C 78.125 19.761719 78.15625 19.632812 78.191406 19.5 Z M 78.191406 19.5 "/>
<path style=" stroke:none;fill-rule:nonzero;fill:rgb(80.784315%,45.490196%,50.980395%);fill-opacity:1;" d="M 57.714844 19.886719 C 57.574219 22.269531 57.664062 24.679688 57.640625 27.089844 C 57.679688 28.96875 57.523438 30.859375 57.8125 32.691406 C 57.828125 34.222656 57.949219 35.730469 58.035156 37.257812 C 57.753906 36.121094 57.796875 34.835938 57.742188 33.664062 C 57.34375 29.839844 57.625 25.875 57.539062 22.011719 C 57.617188 21.359375 57.359375 20.449219 57.714844 19.886719 Z M 57.714844 19.886719 "/>
<path style=" stroke:none;fill-rule:nonzero;fill:rgb(77.254903%,34.509805%,41.176471%);fill-opacity:1;" d="M 78.089844 19.894531 C 78.003906 21.003906 78.003906 22.09375 78.011719 23.207031 C 78.074219 26.917969 77.863281 30.699219 78.183594 34.386719 C 78.214844 35.382812 78.214844 36.351562 78.316406 37.347656 C 77.734375 33.402344 77.957031 28.914062 77.914062 24.902344 C 78.015625 23.28125 77.699219 21.453125 78.089844 19.894531 Z M 78.089844 19.894531 "/>
<path style=" stroke:none;fill-rule:nonzero;fill:rgb(85.882354%,59.215689%,62.7451%);fill-opacity:1;" d="M 40.910156 20.09375 C 40.96875 21.417969 40.960938 22.773438 40.917969 24.097656 C 40.675781 26.257812 41.027344 28.183594 40.945312 30.378906 C 40.875 32.152344 41.042969 33.894531 41.035156 35.65625 L 40.941406 35.65625 C 40.902344 33.859375 40.820312 32.109375 40.816406 30.304688 C 40.679688 26.867188 40.761719 23.523438 40.910156 20.09375 Z M 40.910156 20.09375 "/>
<path style=" stroke:none;fill-rule:nonzero;fill:rgb(76.078433%,89.411765%,96.470588%);fill-opacity:1;" d="M 151.078125 20.894531 C 152.050781 21.878906 152.191406 23.679688 152.375 24.992188 C 152.4375 26.1875 152.835938 27.441406 152.1875 28.523438 C 151.570312 29.484375 150.082031 29.796875 149.113281 29.238281 C 148.292969 28.726562 148.214844 27.972656 148.046875 27.101562 C 147.667969 25.734375 147.574219 24.226562 147.578125 22.808594 C 147.167969 20.8125 149.652344 19.792969 151.078125 20.894531 Z M 151.078125 20.894531 "/>
<path style=" stroke:none;fill-rule:nonzero;fill:rgb(52.941179%,7.058824%,18.82353%);fill-opacity:1;" d="M 39.523438 22.046875 C 39.558594 22.8125 38.820312 23.714844 38.277344 24.21875 C 38.046875 24.390625 37.804688 24.921875 37.476562 24.695312 C 36.601562 24.25 35.34375 23.78125 34.425781 24.34375 C 33.292969 25.074219 32.542969 26.386719 32.167969 27.652344 C 31.511719 29.238281 31.457031 30.878906 31.503906 32.570312 C 31.46875 33.074219 31.640625 33.933594 31.226562 34.304688 C 29.589844 31.234375 30.304688 27.242188 31.90625 24.308594 C 32.515625 23.519531 33.160156 22.636719 34.285156 22.796875 C 35.203125 22.6875 35.753906 23.550781 36.535156 23.570312 C 37.308594 22.804688 38.054688 21.84375 38.683594 20.945312 C 39.070312 21.085938 39.363281 21.6875 39.523438 22.046875 Z M 39.523438 22.046875 "/>
<path style=" stroke:none;fill-rule:nonzero;fill:rgb(81.568629%,47.058824%,52.549022%);fill-opacity:1;" d="M 65.265625 20.890625 C 65.308594 26.050781 65.316406 31.222656 65.261719 36.378906 C 65.109375 35.160156 65.234375 33.898438 65.191406 32.667969 C 65.242188 28.773438 65.097656 24.765625 65.265625 20.890625 Z M 65.265625 20.890625 "/>
<path style=" stroke:none;fill-rule:nonzero;fill:rgb(14.509805%,32.156864%,43.921569%);fill-opacity:1;" d="M 105.167969 22.28125 C 104.230469 22.324219 103.246094 22.394531 102.316406 22.464844 C 102.257812 23.867188 102.1875 25.398438 102.164062 26.792969 C 101.867188 26.804688 101.570312 26.808594 101.273438 26.777344 C 101.3125 24.871094 101.164062 22.898438 101.347656 21.011719 C 102.632812 20.738281 104.390625 21.164062 105.167969 22.28125 Z M 105.167969 22.28125 "/>
<path style=" stroke:none;fill-rule:nonzero;fill:rgb(56.078434%,65.098041%,70.588237%);fill-opacity:1;" d="M 101.347656 21.011719 C 101.164062 22.898438 101.3125 24.871094 101.273438 26.777344 C 101.003906 25.816406 101.285156 23.886719 101.132812 22.730469 C 101.136719 22.40625 100.820312 20.886719 101.347656 21.011719 Z M 101.347656 21.011719 "/>
<path style=" stroke:none;fill-rule:nonzero;fill:rgb(9.803922%,33.333334%,49.411765%);fill-opacity:1;" d="M 109.320312 21.914062 C 109.804688 23.226562 110.359375 24.363281 110.203125 25.796875 C 109.921875 28.324219 107.796875 30.554688 105.457031 31.382812 C 104.734375 31.792969 103.339844 31.808594 102.820312 32.429688 C 102.617188 34.300781 102.875 36.511719 102.859375 38.335938 C 102.386719 40.039062 100.214844 39.382812 99.070312 38.871094 C 99.175781 38.796875 99.277344 38.726562 99.386719 38.65625 C 100.277344 39.179688 101.351562 39.148438 102.136719 38.519531 C 102.167969 37.125 102.203125 35.691406 102.117188 34.300781 C 102.039062 33.296875 102.015625 31.882812 103.15625 31.472656 C 104.304688 30.898438 105.558594 30.925781 106.613281 30.058594 C 108.386719 28.71875 109.6875 26.359375 109.414062 24.101562 C 109.207031 24.300781 109.121094 24.550781 109.027344 24.8125 C 109.066406 24.007812 108.917969 23.230469 108.882812 22.429688 C 108.945312 22.203125 109.015625 21.324219 109.320312 21.914062 Z M 109.320312 21.914062 "/>
<path style=" stroke:none;fill-rule:nonzero;fill:rgb(14.117648%,58.823532%,80.392158%);fill-opacity:1;" d="M 105.167969 22.28125 C 106.550781 24.261719 104.203125 26.722656 102.164062 26.792969 C 102.1875 25.398438 102.257812 23.867188 102.316406 22.464844 C 103.246094 22.394531 104.230469 22.324219 105.167969 22.28125 Z M 105.167969 22.28125 "/>
<path style=" stroke:none;fill-rule:nonzero;fill:rgb(69.803923%,73.333335%,76.47059%);fill-opacity:1;" d="M 134.886719 22.683594 C 134.953125 24.535156 135.304688 26.246094 135.121094 28.113281 C 135.117188 26.273438 134.738281 24.519531 134.886719 22.683594 Z M 134.886719 22.683594 "/>
<path style=" stroke:none;fill-rule:nonzero;fill:rgb(52.549022%,5.882353%,18.431373%);fill-opacity:1;" d="M 40.558594 23.417969 C 40.820312 25.441406 40.441406 28.121094 40.816406 30.304688 C 40.820312 32.109375 40.902344 33.859375 40.941406 35.65625 C 40.917969 36.371094 41.113281 37.144531 41.066406 37.871094 C 39.453125 38.203125 38.667969 39.609375 37.140625 40.019531 C 34.691406 41.128906 31 40.4375 29.25 38.347656 L 29.414062 38.335938 C 30.125 38.527344 30.738281 38.945312 31.4375 39.125 C 34.445312 39.921875 37.324219 38.644531 39.257812 36.332031 C 39.636719 36.386719 40.035156 36.484375 40.417969 36.4375 C 40.710938 32.125 40.457031 27.746094 40.558594 23.417969 Z M 40.558594 23.417969 "/>
<path style=" stroke:none;fill-rule:nonzero;fill:rgb(77.64706%,61.176473%,65.490198%);fill-opacity:1;" d="M 61.585938 23.582031 C 61.632812 24.785156 61.632812 26.011719 61.585938 27.214844 C 61.46875 26.128906 61.46875 24.667969 61.585938 23.582031 Z M 61.585938 23.582031 "/>
<path style=" stroke:none;fill-rule:nonzero;fill:rgb(18.82353%,25.098041%,35.686275%);fill-opacity:1;" d="M 109.414062 24.101562 C 109.6875 26.359375 108.386719 28.71875 106.613281 30.058594 C 105.558594 30.925781 104.304688 30.898438 103.15625 31.472656 C 102.015625 31.882812 102.039062 33.296875 102.117188 34.300781 C 102.203125 35.691406 102.167969 37.125 102.136719 38.519531 C 101.351562 39.148438 100.277344 39.179688 99.386719 38.65625 L 99.246094 38.570312 C 99.933594 38.328125 100.648438 38.285156 101.324219 37.992188 C 101.769531 37.511719 101.507812 36.234375 101.539062 35.582031 C 101.582031 34.082031 101.582031 32.554688 101.539062 31.054688 C 101.941406 30.628906 103.019531 30.539062 103.59375 30.328125 C 106.234375 29.601562 108.457031 27.558594 109.027344 24.8125 C 109.121094 24.550781 109.207031 24.300781 109.414062 24.101562 Z M 109.414062 24.101562 "/>
<path style=" stroke:none;fill-rule:nonzero;fill:rgb(89.803922%,58.039218%,60.392159%);fill-opacity:1;" d="M 45.71875 26.6875 C 47.144531 26.707031 48.570312 26.671875 49.992188 26.710938 C 48.527344 26.894531 46.976562 26.753906 45.496094 26.777344 C 45.570312 26.75 45.644531 26.71875 45.71875 26.6875 Z M 45.71875 26.6875 "/>
<path style=" stroke:none;fill-rule:nonzero;fill:rgb(69.01961%,47.843137%,52.941179%);fill-opacity:1;" d="M 69.097656 27.066406 C 69.246094 28.652344 69.15625 30.300781 69.140625 31.894531 C 68.992188 30.3125 69.082031 28.664062 69.097656 27.066406 Z M 69.097656 27.066406 "/>
<path style=" stroke:none;fill-rule:nonzero;fill:rgb(10.196079%,58.431375%,81.960785%);fill-opacity:1;" d="M 110.378906 27.589844 C 110.855469 29.550781 110.636719 31.421875 110.761719 33.40625 C 110.789062 35.0625 110.941406 36.699219 111.023438 38.355469 C 110.683594 38.695312 109.105469 38.585938 108.523438 38.644531 C 107.054688 38.738281 105.609375 38.722656 104.152344 38.945312 C 103.878906 38.914062 103.335938 39.09375 103.324219 38.679688 C 103.398438 36.980469 102.628906 34.566406 103.070312 32.785156 C 104.328125 31.640625 106.296875 31.847656 107.625 30.574219 C 108.753906 29.75 109.511719 28.660156 110.378906 27.589844 Z M 110.378906 27.589844 "/>
<path style=" stroke:none;fill-rule:nonzero;fill:rgb(9.019608%,51.372552%,74.117649%);fill-opacity:1;" d="M 116.191406 29.460938 C 116.519531 32.558594 116.566406 35.777344 116.777344 38.910156 C 117.507812 38.304688 118.722656 38.796875 118.46875 37.542969 C 118.59375 37.578125 118.726562 37.609375 118.851562 37.644531 C 119.152344 37.730469 119.449219 37.824219 119.734375 37.945312 C 120.535156 38.917969 121.617188 39.175781 122.835938 39.039062 C 124.402344 38.984375 125.839844 38.609375 127.40625 38.636719 C 128.492188 38.492188 129.902344 38.605469 130.792969 37.859375 C 131.425781 36.949219 130.847656 35.984375 130.695312 34.980469 C 130.871094 34.761719 131.042969 34.539062 131.261719 34.359375 C 131.324219 35.128906 131.191406 36.257812 131.605469 36.921875 C 131.925781 37.25 132.167969 37.609375 132.570312 37.84375 C 132.855469 38.238281 133.429688 39.023438 133.960938 38.953125 C 136.792969 38.511719 139.753906 38.714844 142.578125 38.203125 C 144.089844 37.863281 143.441406 35.851562 143.628906 34.742188 C 143.726562 35.089844 143.6875 35.492188 143.839844 35.8125 C 144.320312 35.960938 144.792969 35.964844 145.292969 35.960938 C 148.835938 35.976562 152.519531 35.664062 156.027344 35.246094 C 156.34375 35.292969 156.539062 35.148438 156.550781 35.574219 C 155.125 41.429688 151.453125 46.503906 146.554688 49.96875 C 144.234375 51.601562 141.707031 52.605469 139.023438 53.472656 C 138.070312 53.691406 137.304688 54.066406 136.273438 54.015625 C 134.753906 53.941406 133.203125 54.191406 131.679688 54.1875 C 127.660156 53.976562 123.585938 54.128906 119.554688 54.082031 C 115.523438 53.929688 111.5625 53.996094 107.527344 53.984375 C 101.867188 53.859375 95.226562 53.742188 89.640625 53.789062 C 88.074219 53.730469 86.550781 53.515625 84.976562 53.566406 C 84.875 52.605469 84.515625 51.1875 84.949219 50.269531 C 86.386719 50.867188 88.292969 50.488281 89.839844 50.597656 C 95.761719 50.578125 102.277344 50.847656 108.222656 50.796875 C 112.101562 50.820312 115.839844 50.957031 119.753906 50.894531 C 121.722656 50.828125 123.644531 51.070312 125.617188 50.992188 C 129.015625 51.207031 132.582031 51.425781 135.953125 50.90625 C 137.6875 50.753906 139.402344 50.140625 140.925781 49.316406 C 137.289062 49.804688 133.832031 49.578125 130.179688 49.425781 C 123.4375 49.28125 117.140625 48.789062 110.410156 48.605469 C 107.128906 48.539062 103.921875 48.300781 100.652344 48.140625 C 95.609375 47.984375 90.058594 47.777344 84.984375 47.609375 C 84.570312 45.132812 84.554688 42.460938 85.136719 40.011719 C 86.839844 39.597656 88.453125 39.273438 90.214844 39.289062 C 91.601562 39.402344 93.019531 39.324219 94.414062 39.335938 C 95.582031 39.144531 97.28125 39.382812 98.320312 38.785156 C 98.570312 38.847656 98.808594 38.914062 99.070312 38.871094 C 100.214844 39.382812 102.386719 40.039062 102.859375 38.335938 C 103.011719 38.453125 103.167969 38.566406 103.324219 38.679688 C 103.335938 39.09375 103.878906 38.914062 104.152344 38.945312 C 105.609375 38.722656 107.054688 38.738281 108.523438 38.644531 C 109.105469 38.585938 110.683594 38.695312 111.023438 38.355469 C 111.332031 38.753906 112.054688 38.839844 112.523438 38.984375 C 113.742188 39.410156 114.925781 39.671875 116.164062 39.140625 C 116.539062 39.003906 116.710938 39.019531 116.679688 38.550781 C 116.476562 35.511719 116.292969 32.503906 116.191406 29.460938 Z M 116.191406 29.460938 "/>
<path style=" stroke:none;fill-rule:nonzero;fill:rgb(73.725492%,60.000002%,63.921571%);fill-opacity:1;" d="M 48.621094 30.550781 C 47.292969 30.613281 45.960938 30.554688 44.632812 30.585938 C 45.753906 30.378906 47.371094 30.460938 48.621094 30.550781 Z M 48.621094 30.550781 "/>
<path style=" stroke:none;fill-rule:nonzero;fill:rgb(44.313726%,12.941177%,21.568628%);fill-opacity:1;" d="M 44.632812 30.585938 C 45.960938 30.554688 47.292969 30.613281 48.621094 30.550781 C 49.273438 30.613281 49.925781 30.542969 50.578125 30.59375 C 50.578125 30.714844 50.574219 30.835938 50.570312 30.957031 C 50.488281 31.179688 50.402344 31.40625 50.289062 31.613281 C 48.953125 30.957031 47.539062 31.011719 46.089844 31.136719 C 45.175781 31.140625 45.25 32.328125 45.214844 32.96875 C 45.144531 34.738281 45.621094 36.722656 45.339844 38.464844 C 45.074219 39.632812 43.191406 39.273438 42.304688 39.484375 C 41.90625 39.296875 41.621094 39.050781 41.4375 38.640625 C 42.714844 38.824219 43.484375 39.234375 44.699219 38.433594 C 45.273438 37.917969 44.992188 36.582031 44.878906 35.894531 C 44.742188 35.332031 44.921875 34.789062 44.722656 34.261719 C 44.675781 33.234375 44.8125 32.167969 44.644531 31.152344 C 44.632812 30.960938 44.621094 30.777344 44.632812 30.585938 Z M 44.632812 30.585938 "/>
<path style=" stroke:none;fill-rule:nonzero;fill:rgb(83.92157%,56.078434%,60.784316%);fill-opacity:1;" d="M 50.578125 30.59375 C 50.816406 30.84375 50.621094 31.9375 50.683594 32.371094 C 50.601562 34.066406 50.894531 35.710938 51.070312 37.371094 C 50.476562 35.355469 50.617188 33.042969 50.570312 30.957031 C 50.574219 30.835938 50.578125 30.714844 50.578125 30.59375 Z M 50.578125 30.59375 "/>
<path style=" stroke:none;fill-rule:nonzero;fill:rgb(56.862748%,4.705882%,16.470589%);fill-opacity:1;" d="M 50.289062 31.613281 C 50.082031 31.863281 49.566406 31.757812 49.269531 31.808594 C 48.3125 31.726562 47.378906 31.609375 46.414062 31.683594 C 45.523438 31.605469 45.71875 32.953125 45.769531 33.503906 C 45.839844 34.878906 45.898438 36.289062 46.097656 37.652344 C 46.035156 38.300781 46.394531 39.65625 45.675781 39.992188 C 44.640625 40.320312 43.269531 39.902344 42.304688 39.484375 C 43.191406 39.273438 45.074219 39.632812 45.339844 38.464844 C 45.621094 36.722656 45.144531 34.738281 45.214844 32.96875 C 45.25 32.328125 45.175781 31.140625 46.089844 31.136719 C 47.539062 31.011719 48.953125 30.957031 50.289062 31.613281 Z M 50.289062 31.613281 "/>
<path style=" stroke:none;fill-rule:nonzero;fill:rgb(62.7451%,65.882355%,70.19608%);fill-opacity:1;" d="M 101.539062 31.054688 C 101.582031 32.554688 101.582031 34.082031 101.539062 35.582031 C 101.425781 34.117188 101.414062 32.515625 101.539062 31.054688 Z M 101.539062 31.054688 "/>
<path style=" stroke:none;fill-rule:nonzero;fill:rgb(72.156864%,56.862748%,60.784316%);fill-opacity:1;" d="M 44.644531 31.152344 C 44.8125 32.167969 44.675781 33.234375 44.722656 34.261719 C 44.507812 33.28125 44.660156 32.160156 44.644531 31.152344 Z M 44.644531 31.152344 "/>
<path style=" stroke:none;fill-rule:nonzero;fill:rgb(80.784315%,18.039216%,22.745098%);fill-opacity:1;" d="M 46.414062 31.683594 C 47.378906 31.609375 48.3125 31.726562 49.269531 31.808594 C 49.554688 31.847656 49.839844 31.863281 50.128906 31.894531 C 49.90625 33.921875 50.589844 35.976562 50.527344 37.988281 C 49.089844 38.152344 47.519531 37.929688 46.097656 37.652344 C 45.898438 36.289062 45.839844 34.878906 45.769531 33.503906 C 45.71875 32.953125 45.523438 31.605469 46.414062 31.683594 Z M 46.414062 31.683594 "/>
<path style=" stroke:none;fill-rule:nonzero;fill:rgb(75.294119%,53.333336%,58.039218%);fill-opacity:1;" d="M 69.195312 33.144531 C 69.246094 33.441406 69.261719 33.742188 69.300781 34.039062 C 69.664062 34.105469 70.015625 34.070312 70.378906 34 C 70.84375 33.941406 71.308594 33.957031 71.777344 34 C 71 33.992188 70.308594 34.257812 69.5625 34.269531 C 68.933594 34.355469 69.234375 33.507812 69.195312 33.144531 Z M 69.195312 33.144531 "/>
<path style=" stroke:none;fill-rule:nonzero;fill:rgb(10.980392%,32.156864%,49.019608%);fill-opacity:1;" d="M 142.398438 34.171875 C 142.796875 34.324219 143.316406 34.441406 143.628906 34.742188 C 143.441406 35.851562 144.089844 37.863281 142.578125 38.203125 C 139.753906 38.714844 136.792969 38.511719 133.960938 38.953125 C 133.429688 39.023438 132.855469 38.238281 132.570312 37.84375 C 132.699219 37.824219 132.824219 37.804688 132.949219 37.789062 C 134.117188 38.578125 135.21875 38.3125 136.523438 38.199219 C 138.082031 37.769531 140.039062 38.082031 141.617188 37.851562 C 142.324219 37.839844 142.953125 37.296875 142.914062 36.554688 C 142.867188 35.894531 142.78125 35.113281 142.449219 34.53125 C 142.433594 34.410156 142.414062 34.289062 142.398438 34.171875 Z M 142.398438 34.171875 "/>
<path style=" stroke:none;fill-rule:nonzero;fill:rgb(70.19608%,54.11765%,58.431375%);fill-opacity:1;" d="M 44.722656 34.261719 C 44.921875 34.789062 44.742188 35.332031 44.878906 35.894531 C 44.992188 36.582031 45.273438 37.917969 44.699219 38.433594 C 45.246094 37.078125 44.488281 35.742188 44.722656 34.261719 Z M 44.722656 34.261719 "/>
<path style=" stroke:none;fill-rule:nonzero;fill:rgb(21.176471%,26.274511%,35.686275%);fill-opacity:1;" d="M 142.449219 34.53125 C 142.78125 35.113281 142.867188 35.894531 142.914062 36.554688 C 142.953125 37.296875 142.324219 37.839844 141.617188 37.851562 C 140.039062 38.082031 138.082031 37.769531 136.523438 38.199219 C 135.21875 38.3125 134.117188 38.578125 132.949219 37.789062 C 135.949219 37.347656 138.691406 37.296875 141.382812 36.90625 C 142.621094 36.59375 142.136719 35.476562 142.449219 34.53125 Z M 142.449219 34.53125 "/>
<path style=" stroke:none;fill-rule:nonzero;fill:rgb(15.686275%,27.843139%,39.607844%);fill-opacity:1;" d="M 130.695312 34.980469 C 130.847656 35.984375 131.425781 36.949219 130.792969 37.859375 C 129.902344 38.605469 128.492188 38.492188 127.40625 38.636719 C 125.839844 38.609375 124.402344 38.984375 122.835938 39.039062 C 121.617188 39.175781 120.535156 38.917969 119.734375 37.945312 C 122.976562 37.691406 125.996094 37.578125 129.234375 36.992188 C 129.925781 36.882812 129.765625 35.691406 129.914062 35.183594 C 130 34.347656 130.175781 34.824219 130.695312 34.980469 Z M 130.695312 34.980469 "/>
<path style=" stroke:none;fill-rule:nonzero;fill:rgb(15.294118%,27.843139%,41.568628%);fill-opacity:1;" d="M 89.472656 34.863281 C 90.738281 35.917969 90.539062 37.0625 90.550781 38.5625 C 88.496094 39.453125 86.457031 38.894531 84.359375 39.339844 C 84.382812 38.90625 84.375 38.484375 84.371094 38.050781 C 85.929688 37.933594 87.492188 37.785156 89.039062 37.550781 C 89.320312 37.578125 89.222656 37.160156 89.28125 36.976562 C 89.371094 36.273438 89.34375 35.566406 89.472656 34.863281 Z M 89.472656 34.863281 "/>
<path style=" stroke:none;fill-rule:nonzero;fill:rgb(52.156866%,6.27451%,18.039216%);fill-opacity:1;" d="M 76.921875 35.238281 C 77.597656 36.355469 77.878906 37.695312 77.035156 38.765625 C 74.710938 39.316406 72.15625 39.554688 69.765625 39.640625 C 68.441406 39.476562 67.230469 40.214844 66.589844 38.648438 C 67.109375 38.421875 67.742188 38.640625 68.296875 38.472656 C 68.730469 38.449219 69.160156 38.460938 69.589844 38.375 C 71.613281 38.316406 73.75 38.023438 75.746094 37.667969 C 76.382812 37.5 76.28125 36.96875 76.429688 36.457031 C 76.527344 36.015625 76.65625 35.609375 76.921875 35.238281 Z M 76.921875 35.238281 "/>
<path style=" stroke:none;fill-rule:nonzero;fill:rgb(39.215687%,9.803922%,22.745098%);fill-opacity:1;" d="M 84.371094 38.050781 C 84.375 38.484375 84.382812 38.90625 84.359375 39.339844 C 84.25 39.765625 84.269531 40.179688 84.253906 40.613281 C 83.882812 42.351562 84.160156 44.238281 84.074219 46.015625 C 84.089844 48.582031 84.042969 51.152344 84.097656 53.71875 L 84.085938 53.890625 C 84.003906 54.421875 84.144531 54.875 84.289062 55.375 C 84.34375 55.648438 84.410156 55.921875 84.492188 56.191406 C 84.128906 56.410156 83.835938 56.648438 83.40625 56.710938 C 79.496094 56.59375 75.589844 56.875 71.652344 56.773438 C 64.464844 56.773438 57.277344 56.769531 50.085938 56.777344 C 49.863281 56.769531 49.640625 56.761719 49.414062 56.742188 C 43.320312 56.441406 37.082031 57.070312 31.027344 56.242188 C 29.160156 56.082031 27.441406 55.636719 25.671875 55.050781 C 25.476562 54.945312 24.648438 54.667969 25.351562 54.660156 C 28.054688 55.511719 30.746094 56.105469 33.589844 56.175781 C 41.800781 56.382812 50.195312 56.226562 58.433594 56.273438 C 66.835938 56.261719 75.371094 56.300781 83.753906 56.257812 C 83.742188 55.664062 83.394531 55.230469 83.308594 54.664062 C 83.300781 54.535156 83.289062 54.410156 83.277344 54.28125 C 83.066406 52.164062 83.140625 49.992188 83.015625 47.882812 C 83.003906 47.785156 82.996094 47.691406 82.988281 47.59375 C 82.972656 45.90625 82.988281 44.21875 82.980469 42.53125 C 82.941406 41.6875 83.117188 40.558594 82.730469 39.796875 C 82.042969 39.066406 80.492188 39.527344 79.707031 38.839844 C 79.375 38.550781 80.253906 38.558594 80.410156 38.453125 C 81.738281 38.179688 83.0625 38.378906 84.371094 38.050781 Z M 84.371094 38.050781 "/>
<path style=" stroke:none;fill-rule:nonzero;fill:rgb(20.784314%,49.019608%,67.058825%);fill-opacity:1;" d="M 90.550781 38.5625 C 90.46875 38.816406 90.34375 39.050781 90.214844 39.289062 C 88.453125 39.273438 86.839844 39.597656 85.136719 40.011719 C 84.554688 42.460938 84.570312 45.132812 84.984375 47.609375 C 84.945312 48.496094 85 49.382812 84.949219 50.269531 C 84.515625 51.1875 84.875 52.605469 84.976562 53.566406 C 84.683594 53.625 84.425781 53.71875 84.160156 53.859375 L 84.085938 53.890625 L 84.097656 53.71875 C 84.410156 53.332031 84.234375 52.664062 84.273438 52.191406 C 84.261719 48.332031 84.300781 44.472656 84.253906 40.613281 C 84.269531 40.179688 84.25 39.765625 84.359375 39.339844 C 86.457031 38.894531 88.496094 39.453125 90.550781 38.5625 Z M 90.550781 38.5625 "/>
<path style=" stroke:none;fill-rule:nonzero;fill:rgb(83.92157%,28.235295%,30.980393%);fill-opacity:1;" d="M 21.75 40.453125 C 24.210938 41.492188 26.136719 43.875 28.519531 45.121094 C 29.722656 45.527344 31.152344 45.171875 32.417969 45.382812 C 34.078125 45.492188 35.835938 45.375 37.464844 45.707031 C 40.820312 45.753906 44.246094 45.988281 47.601562 46.011719 C 54.542969 46.445312 60.925781 46.660156 67.875 46.828125 C 69.539062 46.914062 71.183594 47.171875 72.84375 47.109375 C 76.203125 47.378906 79.652344 47.152344 82.988281 47.59375 C 82.996094 47.691406 83.003906 47.785156 83.015625 47.882812 C 82.929688 48.914062 83.027344 49.953125 82.964844 50.984375 C 82.960938 51.222656 82.761719 51.164062 82.585938 51.195312 C 78.378906 51.195312 74.171875 51.195312 69.964844 51.195312 C 66.1875 51.109375 62.632812 51.429688 58.875 51.246094 C 54.800781 51.414062 50.675781 51.148438 46.609375 51.398438 C 42.335938 51.390625 38.0625 51.394531 33.789062 51.394531 C 30.832031 51.34375 27.828125 50.472656 25.1875 49.148438 C 22.855469 47.839844 20.226562 46.117188 18.851562 43.757812 C 18.058594 41.832031 19.722656 39.832031 21.75 40.453125 Z M 21.75 40.453125 "/>
<path style=" stroke:none;fill-rule:nonzero;fill:rgb(31.764707%,69.803923%,84.313726%);fill-opacity:1;" d="M 146.984375 40.535156 C 148.003906 40.625 148.640625 41.507812 148.863281 42.433594 C 149.035156 43.371094 148.269531 44.367188 147.6875 45.03125 C 146.707031 45.953125 145.660156 46.824219 144.507812 47.523438 C 143.371094 48.316406 141.921875 48.890625 140.519531 48.808594 C 139.625 48.828125 138.800781 47.980469 138.742188 47.105469 C 138.617188 46.152344 139.257812 45.824219 139.824219 45.21875 C 141.039062 44.171875 142.347656 43.238281 143.585938 42.214844 C 144.511719 41.523438 145.75 40.355469 146.984375 40.535156 Z M 146.984375 40.535156 "/>
<path style=" stroke:none;fill-rule:nonzero;fill:rgb(28.235295%,31.37255%,47.058824%);fill-opacity:1;" d="M 84.253906 40.613281 C 84.300781 44.472656 84.261719 48.332031 84.273438 52.191406 C 84.234375 52.664062 84.410156 53.332031 84.097656 53.71875 C 84.042969 51.152344 84.089844 48.582031 84.074219 46.015625 C 84.160156 44.238281 83.882812 42.351562 84.253906 40.613281 Z M 84.253906 40.613281 "/>
<path style=" stroke:none;fill-rule:nonzero;fill:rgb(46.666667%,20.392157%,31.37255%);fill-opacity:1;" d="M 12.265625 44.476562 C 13.277344 45.554688 13.945312 46.863281 15.066406 47.847656 C 17.953125 50.875 21.449219 53.179688 25.351562 54.660156 C 24.648438 54.667969 25.476562 54.945312 25.671875 55.050781 C 27.441406 55.636719 29.160156 56.082031 31.027344 56.242188 C 30.914062 56.265625 30.800781 56.289062 30.6875 56.3125 C 23.050781 55.441406 15.871094 50.84375 11.777344 44.332031 C 11.945312 43.921875 12.0625 44.347656 12.265625 44.476562 Z M 12.265625 44.476562 "/>
<path style=" stroke:none;fill-rule:nonzero;fill:rgb(86.274511%,27.450982%,31.37255%);fill-opacity:1;" d="M 14.40625 44.523438 C 15.257812 45.328125 15.972656 46.257812 16.839844 47.070312 C 21.296875 51.703125 27.410156 54.207031 33.796875 54.457031 C 46.398438 54.515625 59.222656 54.464844 71.851562 54.480469 C 75.703125 54.429688 79.453125 54.632812 83.277344 54.28125 C 83.289062 54.410156 83.300781 54.535156 83.308594 54.664062 C 83.246094 55.691406 83.222656 55.714844 82.207031 55.816406 C 78.25 55.957031 74.230469 55.835938 70.261719 55.875 C 57.804688 55.875 45.347656 55.878906 32.890625 55.875 C 31.046875 55.535156 29.230469 55.195312 27.390625 54.828125 C 26.089844 54.707031 24.855469 53.992188 23.667969 53.464844 C 22.285156 52.816406 20.933594 52.175781 19.691406 51.273438 C 17.605469 49.554688 15.097656 47.78125 13.675781 45.445312 C 14.058594 45.445312 14.425781 45.53125 14.796875 45.59375 C 14.6875 45.230469 14.539062 44.878906 14.40625 44.523438 Z M 14.40625 44.523438 "/>
<path style=" stroke:none;fill-rule:nonzero;fill:rgb(24.313726%,45.882353%,60.784316%);fill-opacity:1;" d="M 154.847656 44.574219 C 152.863281 47.824219 150.054688 50.347656 146.828125 52.339844 C 144.441406 53.960938 141.847656 55.128906 139.035156 55.773438 C 135.484375 56.570312 131.628906 56.179688 128 56.273438 C 122.050781 56.308594 115.179688 56.226562 109.242188 56.046875 C 104.21875 55.898438 99.03125 55.988281 93.988281 56.003906 C 90.84375 56.035156 87.609375 55.773438 84.492188 56.191406 C 84.410156 55.921875 84.34375 55.648438 84.289062 55.375 C 88.136719 55.566406 92.003906 55.441406 95.902344 55.480469 C 98.535156 55.167969 101.027344 55.636719 103.679688 55.441406 C 105.558594 55.722656 107.515625 55.511719 109.417969 55.578125 C 113.476562 55.507812 117.398438 55.710938 121.445312 55.6875 C 123.527344 55.960938 125.609375 55.863281 127.703125 55.875 C 130.976562 56.050781 134.226562 56.09375 137.460938 55.511719 C 143.402344 54.476562 149.019531 51.203125 152.875 46.546875 C 153.390625 45.941406 154.152344 44.855469 154.847656 44.574219 Z M 154.847656 44.574219 "/>
<path style=" stroke:none;fill-rule:nonzero;fill:rgb(25.490198%,66.666669%,83.529413%);fill-opacity:1;" d="M 84.984375 47.609375 C 90.058594 47.777344 95.609375 47.984375 100.652344 48.140625 C 103.921875 48.300781 107.128906 48.539062 110.410156 48.605469 C 117.140625 48.789062 123.4375 49.28125 130.179688 49.425781 C 133.832031 49.578125 137.289062 49.804688 140.925781 49.316406 C 139.402344 50.140625 137.6875 50.753906 135.953125 50.90625 C 132.582031 51.425781 129.015625 51.207031 125.617188 50.992188 C 123.644531 51.070312 121.722656 50.828125 119.753906 50.894531 C 115.839844 50.957031 112.101562 50.820312 108.222656 50.796875 C 102.277344 50.847656 95.761719 50.578125 89.839844 50.597656 C 88.292969 50.488281 86.386719 50.867188 84.949219 50.269531 C 85 49.382812 84.945312 48.496094 84.984375 47.609375 Z M 84.984375 47.609375 "/>
<path style=" stroke:none;fill-rule:nonzero;fill:rgb(32.549021%,71.372551%,88.235295%);fill-opacity:1;" d="M 139.023438 53.472656 C 138.667969 53.667969 138.3125 53.71875 138.027344 53.976562 C 138.367188 54.109375 138.769531 54.085938 139.066406 54.28125 C 138.519531 54.777344 137.464844 54.765625 136.769531 55.015625 C 134.925781 55.441406 132.871094 55.226562 130.980469 55.277344 C 120.792969 55.234375 110.3125 55.375 100.179688 55.191406 C 100.097656 55.167969 100.070312 55.222656 100.09375 55.359375 C 101.277344 55.445312 102.5 55.28125 103.679688 55.441406 C 101.027344 55.636719 98.535156 55.167969 95.902344 55.480469 C 92.003906 55.441406 88.136719 55.566406 84.289062 55.375 C 84.144531 54.875 84.003906 54.421875 84.085938 53.890625 L 84.160156 53.859375 C 86.183594 53.621094 88.042969 53.945312 90.039062 53.882812 C 98.195312 53.808594 105.738281 54.15625 113.890625 54.082031 C 117.820312 54.15625 121.570312 54.21875 125.515625 54.183594 C 129.132812 54.128906 132.667969 54.476562 136.273438 54.015625 C 137.304688 54.066406 138.070312 53.691406 139.023438 53.472656 Z M 139.023438 53.472656 "/>
<path style=" stroke:none;fill-rule:nonzero;fill:rgb(21.176471%,61.56863%,81.568629%);fill-opacity:1;" d="M 84.976562 53.566406 C 86.550781 53.515625 88.074219 53.730469 89.640625 53.789062 C 95.226562 53.742188 101.867188 53.859375 107.527344 53.984375 C 111.5625 53.996094 115.523438 53.929688 119.554688 54.082031 C 123.585938 54.128906 127.660156 53.976562 131.679688 54.1875 C 133.203125 54.191406 134.753906 53.941406 136.273438 54.015625 C 132.667969 54.476562 129.132812 54.128906 125.515625 54.183594 C 121.570312 54.21875 117.820312 54.15625 113.890625 54.082031 C 105.738281 54.15625 98.195312 53.808594 90.039062 53.882812 C 88.042969 53.945312 86.183594 53.621094 84.160156 53.859375 C 84.425781 53.71875 84.683594 53.625 84.976562 53.566406 Z M 84.976562 53.566406 "/>
<path style=" stroke:none;fill-rule:nonzero;fill:rgb(77.64706%,83.529413%,87.843138%);fill-opacity:1;" d="M 139.035156 55.773438 C 138.832031 55.984375 138.589844 56.007812 138.316406 56.054688 C 134.539062 56.628906 130.628906 56.277344 126.808594 56.375 C 120.570312 56.417969 115.136719 56.300781 108.921875 56.175781 C 104.902344 56.128906 100.769531 56.269531 96.773438 56.105469 C 100.925781 56.019531 105.089844 56.128906 109.242188 56.046875 C 115.179688 56.226562 122.050781 56.308594 128 56.273438 C 131.628906 56.179688 135.484375 56.570312 139.035156 55.773438 Z M 139.035156 55.773438 "/>
<path style=" stroke:none;fill-rule:nonzero;fill:rgb(49.019608%,62.352943%,72.549021%);fill-opacity:1;" d="M 93.988281 56.003906 C 99.03125 55.988281 104.21875 55.898438 109.242188 56.046875 C 105.089844 56.128906 100.925781 56.019531 96.773438 56.105469 C 95.851562 56.007812 94.898438 56.171875 93.988281 56.003906 Z M 93.988281 56.003906 "/>
<path style=" stroke:none;fill-rule:nonzero;fill:rgb(59.607846%,40.784314%,49.411765%);fill-opacity:1;" d="M 30.6875 56.3125 C 30.800781 56.289062 30.914062 56.265625 31.027344 56.242188 C 37.082031 57.070312 43.320312 56.441406 49.414062 56.742188 C 45.097656 56.832031 40.765625 56.707031 36.449219 56.808594 C 34.507812 56.589844 32.617188 56.730469 30.6875 56.3125 Z M 30.6875 56.3125 "/>
<path style=" stroke:none;fill-rule:nonzero;fill:rgb(54.901963%,33.725491%,43.529412%);fill-opacity:1;" d="M 83.40625 56.710938 C 81.554688 56.84375 79.699219 56.707031 77.839844 56.902344 C 68.855469 56.855469 59.84375 56.855469 50.859375 56.902344 C 50.601562 56.882812 50.34375 56.871094 50.085938 56.867188 L 50.085938 56.777344 C 57.277344 56.769531 64.464844 56.773438 71.652344 56.773438 C 75.589844 56.875 79.496094 56.59375 83.40625 56.710938 Z M 83.40625 56.710938 "/>
<path style=" stroke:none;fill-rule:nonzero;fill:rgb(87.450981%,81.568629%,83.92157%);fill-opacity:1;" d="M 36.449219 56.808594 C 40.765625 56.707031 45.097656 56.832031 49.414062 56.742188 C 49.640625 56.761719 49.863281 56.769531 50.085938 56.777344 L 50.085938 56.867188 C 45.570312 56.835938 40.949219 56.957031 36.449219 56.808594 Z M 36.449219 56.808594 "/>
<path style=" stroke:none;fill-rule:nonzero;fill:rgb(82.745099%,74.901962%,78.431374%);fill-opacity:1;" d="M 50.859375 56.902344 C 59.84375 56.855469 68.855469 56.855469 77.839844 56.902344 C 77.054688 57.046875 76.226562 56.941406 75.429688 56.972656 C 67.339844 56.925781 58.898438 57.066406 50.859375 56.902344 Z M 50.859375 56.902344 "/>
</g>
</svg>
